#N canvas 997 137 380 289 10;
#X obj 355 624 dac~;
#X obj 293 407 r long;
#X obj 396 407 r lat;
#X obj 293 449 + 100;
#X obj 396 449 + 100;
#X obj 294 524 osc~ 220;
#X obj 390 577 *~ 0.7;
#X obj 321 577 *~ 0.7;
#X obj 396 522 osc~ 260;
#X floatatom 396 474 5 0 0 0 - - -, f 5;
#X msg 396 498 \$1;
#X floatatom 293 474 5 0 0 0 - - -, f 5;
#X msg 293 499 \$1;
#X connect 1 0 3 0;
#X connect 2 0 4 0;
#X connect 3 0 11 0;
#X connect 4 0 9 0;
#X connect 5 0 7 0;
#X connect 6 0 0 1;
#X connect 7 0 0 0;
#X connect 8 0 6 0;
#X connect 9 0 10 0;
#X connect 10 0 8 0;
#X connect 11 0 12 0;
#X connect 12 0 5 0;


