#N canvas 0 23 790 876 10;
#X obj 258 529 osc~ 176;
#X obj 129 156 osc~ 6.7;
#X obj 387 156 osc~ 0.4;
#X obj 258 249 *~;
#X obj 258 342 *~ 39;
#X obj 258 436 +~ 176;
#X obj 258 623 dac~;
#X obj 259 581 *~ 0.3;
#X connect 0 0 7 0;
#X connect 1 0 3 0;
#X connect 2 0 3 1;
#X connect 3 0 4 0;
#X connect 4 0 5 0;
#X connect 5 0 0 0;
#X connect 7 0 6 0;
#X connect 7 0 6 1;
