#N canvas 561 159 1041 674 10;
#X obj 305 385 dac~;
#X obj 243 210 + 100;
#X obj 346 210 + 100;
#X obj 244 285 osc~ 220;
#X obj 340 338 *~ 0.7;
#X obj 271 338 *~ 0.7;
#X obj 346 283 osc~ 260;
#X floatatom 346 235 5 0 0 0 - - -, f 5;
#X msg 346 259 \$1;
#X floatatom 243 235 5 0 0 0 - - -, f 5;
#X msg 243 260 \$1;
#X obj 243 168 receive long;
#X obj 346 168 receive lat;
#X obj 565 361 delread~;
#X obj 554 190 loadbang;
#X obj 523 275 send test;
#X obj 498 213 bng 15 250 50 0 empty empty empty 17 7 0 10 -262144
-1 -1;
#X obj 752 232 r test;
#X floatatom 754 306 5 0 0 0 - - -, f 5;
#X msg 521 242 23;
#X connect 1 0 9 0;
#X connect 2 0 7 0;
#X connect 4 0 0 1;
#X connect 5 0 0 0;
#X connect 7 0 8 0;
#X connect 8 0 6 0;
#X connect 9 0 10 0;
#X connect 10 0 3 0;
#X connect 11 0 1 0;
#X connect 12 0 2 0;
#X connect 14 0 19 0;
#X connect 16 0 19 0;
#X connect 17 0 18 0;
#X connect 19 0 15 0;
