#N canvas 117 271 1174 596 10;
#X obj 105 585 dac~;
#X obj 80 455 *~;
#X obj 107 432 line~;
#X obj 107 271 bng 15 250 50 0 empty empty empty 17 7 0 10 -262144
-1 -1;
#X obj 107 296 t b b;
#X obj 79 146 osc~ 200;
#X msg 192 349 0 40;
#X obj 192 325 delay 30;
#X obj 108 211 metro;
#X obj 119 189 tgl 15 0 empty empty empty 17 7 0 10 -262144 -1 -1 1
1;
#X obj 198 212 metro;
#X obj 205 186 tgl 15 0 empty empty empty 17 7 0 10 -262144 -1 -1 1
1;
#X obj 136 271 bng 15 250 50 0 empty empty empty 17 7 0 10 -262144
-1 -1;
#X obj 143 139 t b b b b;
#X obj 232 167 del 200;
#X msg 144 188 1300;
#X msg 234 189 1300;
#X text 158 271 du- dum \, du- dum;
#X msg 179 489 0 300;
#X obj 178 520 line~;
#X obj 118 541 *~;
#X msg 264 493 0.3 300;
#X msg 107 385 5 5;
#X obj 143 139;
#X obj 143 117 loadbang;
#X obj 181 467 r stop;
#X obj 266 469 r start;
#X obj 50 17 bng 15 250 50 0 empty empty empty 17 7 0 10 -262144 -1
-1;
#X obj 691 407 osc~;
#X obj 1015 515 line~;
#X obj 1038 341 bng 15 250 50 0 empty empty empty 17 7 0 10 -262144
-1 -1;
#X obj 952 681 dac~;
#X floatatom 894 504 5 0 0 0 - - -, f 5;
#X obj 946 567 *~;
#X obj 1038 400 t b b b;
#X obj 894 477 + 180;
#X obj 692 533 *~;
#X obj 712 144 float;
#X obj 753 145 + 1;
#X floatatom 717 189 5 0 0 0 - - -, f 5;
#X obj 1045 363 s counter;
#X obj 705 117 r counter;
#X obj 691 386 line;
#X obj 820 496 +~ 0.3;
#X msg 1087 468 0 200;
#X obj 713 229 select 0 1 2 3 4 5 6 7;
#X obj 1036 162 tgl 15 0 empty empty empty 17 7 0 10 -262144 -1 -1
1 1;
#X obj 717 168 % 8;
#X obj 894 447 random 500;
#X msg 687 277 293;
#X msg 718 277 698;
#X msg 751 278 440;
#X msg 791 277 880;
#X msg 877 277 349;
#X msg 911 279 523;
#X obj 1025 134 loadbang;
#X msg 998 575 0 300;
#X obj 998 600 line~;
#X obj 393 470 osc~;
#X obj 404 153 float;
#X obj 445 154 + 1;
#X floatatom 409 198 5 0 0 0 - - -, f 5;
#X obj 405 101 r counter;
#X obj 393 449 line;
#X obj 409 282 select 0 1 2 3 4 5 6 7;
#X obj 409 177 % 8;
#X msg 383 330 293;
#X msg 414 330 698;
#X msg 447 331 440;
#X msg 487 330 880;
#X msg 573 330 349;
#X msg 607 332 523;
#X obj 409 219 + 2;
#X obj 947 640 *~;
#X msg 955 504 0.1;
#X floatatom 410 250 5 0 0 0 - - -, f 5;
#X obj 422 131 delay 1000;
#X obj 1036 312 metro 7000;
#X text 1132 309 changes every 7;
#X obj 1087 439 delay 7000;
#X text 1160 439 changes every 7;
#X msg 387 385 \$1 10;
#X msg 691 363 \$1 10;
#X msg 524 330 440;
#X msg 828 277 440;
#X obj 820 443 osc~ 0.2;
#X obj 820 467 *~ 0.7;
#X obj 819 398 osc~ 0.25;
#X obj 819 421 +~;
#X obj 955 485 loadbang;
#X msg 1059 575 0.2 300;
#X obj 887 537 vcf~, f 11;
#X msg 1017 454 2 50;
#X obj 998 552 r stop;
#X obj 1058 552 r start;
#X obj 50 51 bng 15 250 50 0 empty empty empty 17 7 0 10 -262144 -1
-1;
#X text 0 49 stop !;
#X text 1 17 start !;
#X obj 73 16 s start;
#X obj 76 53 s stop;
#X obj 41 -8 loadbang;
#X connect 1 0 20 0;
#X connect 2 0 1 1;
#X connect 3 0 4 0;
#X connect 4 0 22 0;
#X connect 4 1 7 0;
#X connect 5 0 1 0;
#X connect 6 0 2 0;
#X connect 7 0 6 0;
#X connect 8 0 3 0;
#X connect 9 0 8 0;
#X connect 10 0 12 0;
#X connect 11 0 10 0;
#X connect 12 0 4 0;
#X connect 13 0 9 0;
#X connect 13 1 15 0;
#X connect 13 3 14 0;
#X connect 14 0 16 0;
#X connect 14 0 11 0;
#X connect 15 0 8 1;
#X connect 16 0 10 1;
#X connect 18 0 19 0;
#X connect 19 0 20 1;
#X connect 20 0 0 0;
#X connect 20 0 0 1;
#X connect 21 0 19 0;
#X connect 22 0 2 0;
#X connect 24 0 13 0;
#X connect 25 0 18 0;
#X connect 26 0 21 0;
#X connect 27 0 98 0;
#X connect 28 0 36 0;
#X connect 29 0 33 1;
#X connect 30 0 34 0;
#X connect 30 0 40 0;
#X connect 32 0 91 1;
#X connect 33 0 73 0;
#X connect 34 0 48 0;
#X connect 34 1 92 0;
#X connect 34 2 79 0;
#X connect 35 0 32 0;
#X connect 36 0 91 0;
#X connect 37 0 38 0;
#X connect 37 0 47 0;
#X connect 38 0 37 1;
#X connect 39 0 45 0;
#X connect 41 0 37 0;
#X connect 42 0 28 0;
#X connect 43 0 36 1;
#X connect 44 0 29 0;
#X connect 45 0 49 0;
#X connect 45 1 50 0;
#X connect 45 2 51 0;
#X connect 45 3 52 0;
#X connect 45 4 84 0;
#X connect 45 5 53 0;
#X connect 45 6 54 0;
#X connect 46 0 77 0;
#X connect 47 0 39 0;
#X connect 48 0 35 0;
#X connect 49 0 82 0;
#X connect 50 0 82 0;
#X connect 51 0 82 0;
#X connect 52 0 82 0;
#X connect 53 0 82 0;
#X connect 54 0 82 0;
#X connect 55 0 46 0;
#X connect 56 0 57 0;
#X connect 57 0 73 1;
#X connect 58 0 36 0;
#X connect 59 0 60 0;
#X connect 59 0 65 0;
#X connect 60 0 59 1;
#X connect 61 0 72 0;
#X connect 62 0 76 0;
#X connect 63 0 58 0;
#X connect 64 0 66 0;
#X connect 64 1 67 0;
#X connect 64 2 68 0;
#X connect 64 3 69 0;
#X connect 64 4 83 0;
#X connect 64 5 70 0;
#X connect 64 6 71 0;
#X connect 65 0 61 0;
#X connect 66 0 81 0;
#X connect 67 0 81 0;
#X connect 68 0 81 0;
#X connect 69 0 81 0;
#X connect 70 0 81 0;
#X connect 71 0 81 0;
#X connect 72 0 75 0;
#X connect 73 0 31 0;
#X connect 73 0 31 1;
#X connect 74 0 91 2;
#X connect 75 0 64 0;
#X connect 76 0 59 0;
#X connect 77 0 30 0;
#X connect 79 0 44 0;
#X connect 81 0 63 0;
#X connect 82 0 42 0;
#X connect 83 0 81 0;
#X connect 84 0 82 0;
#X connect 85 0 86 0;
#X connect 86 0 43 0;
#X connect 87 0 88 0;
#X connect 88 0 85 0;
#X connect 89 0 74 0;
#X connect 90 0 57 0;
#X connect 91 0 33 0;
#X connect 92 0 29 0;
#X connect 93 0 56 0;
#X connect 94 0 90 0;
#X connect 95 0 99 0;
#X connect 100 0 27 0;
