#N canvas 890 114 790 876 10;
#X obj 355 624 dac~;
#X obj 293 464 r long;
#X obj 396 465 r lat;
#X obj 293 485 + 100;
#X obj 396 486 + 100;
#X obj 294 524 osc~ 220;
#X obj 390 577 *~ 0.7;
#X obj 321 575 *~ 0.7;
#X obj 396 522 osc~ 260;
#X connect 1 0 3 0;
#X connect 2 0 4 0;
#X connect 3 0 5 0;
#X connect 4 0 8 0;
#X connect 5 0 7 0;
#X connect 6 0 0 1;
#X connect 7 0 0 0;
#X connect 8 0 6 0;
