#N canvas 784 32 790 876 10;
#X obj 355 624 dac~;
#X obj 321 575 *~ 0.3;
#X obj 313 460 r long;
#X obj 403 459 r lat;
#X obj 313 481 + 100;
#X obj 403 480 + 100;
#X obj 390 577 *~ 0.3;
#X obj 294 524 osc~ 60;
#X obj 396 524 osc~ 61;
#X connect 1 0 0 0;
#X connect 2 0 4 0;
#X connect 3 0 5 0;
#X connect 4 0 7 0;
#X connect 5 0 8 0;
#X connect 6 0 0 1;
#X connect 7 0 1 0;
#X connect 8 0 6 0;
