#N canvas 745 129 935 860 10;
#X msg 182 56 43.0813, f 13;
#X msg 291 56 -87.8871, f 14;
#X text 305 40 longitude;
#X text 197 40 latitude;
#X text 41 55 my home's coordinates:;
#X obj 45 -20 bng 15 250 50 0 empty empty empty 17 7 0 10 -257985 -1
-1;
#X obj 182 0 t b b;
#X text -85 -21 send out coordinates;
#X obj 182 87 s latitude;
#N canvas 0 23 1333 841 sort-latitude 0;
#X obj 315 174 r latitude;
#X floatatom 315 199 5 0 0 0 - - -, f 5;
#X floatatom -83 346 5 0 0 0 - - -, f 5;
#X text -109 346 < 0;
#X floatatom -82 413 5 0 0 0 - - -, f 5;
#X floatatom 3 382 5 0 0 0 - - -, f 5;
#X obj -83 366 moses -23;
#X text 38 387 > -23;
#X text 38 375 < 0;
#X text -123 413 < -23;
#X obj -82 433 moses -66;
#X floatatom -82 479 5 0 0 0 - - -, f 5;
#X floatatom 2 449 5 0 0 0 - - -, f 5;
#X text 37 443 < -23;
#X text 37 455 > -66;
#X floatatom -82 577 5 0 0 0 - - -, f 5;
#X floatatom 1 515 5 0 0 0 - - -, f 5;
#X text 37 509 < -66;
#X text 37 521 > -90;
#X obj 315 278 moses 0;
#X text -65 306 less than 0;
#X text 646 308 greater than 0;
#X text -116 479 <-66;
#X floatatom 706 348 5 0 0 0 - - -, f 5;
#X floatatom 580 384 5 0 0 0 - - -, f 5;
#X floatatom 705 409 5 0 0 0 - - -, f 5;
#X floatatom 580 446 5 0 0 0 - - -, f 5;
#X floatatom 704 480 5 0 0 0 - - -, f 5;
#X floatatom 580 519 5 0 0 0 - - -, f 5;
#X floatatom 749 570 5 0 0 0 - - -, f 5;
#X text 681 348 > 0;
#X obj 706 368 moses 23;
#X text -48 582 never be activated;
#X text -48 571 this level should;
#X obj 705 430 moses 66;
#X text 545 390 < 23;
#X text 545 380 > 0;
#X text 743 408 > 23;
#X text 547 451 < 66;
#X text 547 440 > 23;
#X text 547 524 < 90;
#X text 547 513 > 66;
#X floatatom 324 246 5 0 0 0 - - -, f 5;
#X obj 704 502 moses 91;
#X obj -82 499 moses -91;
#X obj 315 223 clip -91 91;
#X text -207 500 *(-)91 allows (-)90*;
#X obj 3 405 s s-equator;
#X obj 2 473 s s-capricorn;
#X obj 1 537 s s-antarctic;
#X obj 580 404 s n-equator;
#X obj 580 466 s n-cancer;
#X obj 580 539 s n-arctic;
#X text 78 404 region south of equator;
#X text 86 474 region south of Tropic of Capricorn;
#X text 87 537 region south of Antarctic Circle;
#X text 431 405 region north of equator;
#X text 379 466 region north of Tropic of Cancer;
#X text 396 539 region north of Arctic Circle;
#X text 632 575 never be activated;
#X text 632 564 this level should;
#X text -112 63 from North to South:;
#X text -97 79 n-arctic;
#X text -97 94 n-cancer;
#X text -97 108 n-equator;
#X text -97 122 s-equator;
#X text -97 135 s-capricorn;
#X text -97 149 s-antarctic;
#X text -130 47 places given latitude coordinate into one of six regions
;
#X text -124 576 < -90;
#X text 786 571 > 90;
#X connect 0 0 1 0;
#X connect 1 0 45 0;
#X connect 2 0 6 0;
#X connect 4 0 10 0;
#X connect 5 0 47 0;
#X connect 6 0 4 0;
#X connect 6 1 5 0;
#X connect 10 0 11 0;
#X connect 10 1 12 0;
#X connect 11 0 44 0;
#X connect 12 0 48 0;
#X connect 16 0 49 0;
#X connect 19 0 2 0;
#X connect 19 1 23 0;
#X connect 23 0 31 0;
#X connect 24 0 50 0;
#X connect 25 0 34 0;
#X connect 26 0 51 0;
#X connect 27 0 43 0;
#X connect 28 0 52 0;
#X connect 31 0 24 0;
#X connect 31 1 25 0;
#X connect 34 0 26 0;
#X connect 34 1 27 0;
#X connect 43 0 28 0;
#X connect 43 1 29 0;
#X connect 44 0 15 0;
#X connect 44 1 16 0;
#X connect 45 0 42 0;
#X connect 45 0 19 0;
#X restore 16 155 pd sort-latitude;
#X text 53 226 n-arctic;
#X text 53 249 n-cancer;
#X text 53 275 n-equator;
#X text 53 301 s-equator;
#X text 53 325 s-capricorn;
#X text 53 349 s-antarctic;
#X text 35 190 -input: send "latitude";
#X text 35 206 -output: "recieve" bang from one of 6 options:;
#N canvas 8 38 1022 951 sort-longitude 0;
#X floatatom 315 199 5 0 0 0 - - -, f 5;
#X floatatom -83 346 5 0 0 0 - - -, f 5;
#X text -109 346 < 0;
#X floatatom -82 427 5 0 0 0 - - -, f 5;
#X floatatom 3 382 5 0 0 0 - - -, f 5;
#X floatatom -82 510 5 0 0 0 - - -, f 5;
#X floatatom 2 463 5 0 0 0 - - -, f 5;
#X floatatom 1 546 5 0 0 0 - - -, f 5;
#X obj 315 278 moses 0;
#X text -65 306 less than 0;
#X text 646 308 greater than 0;
#X floatatom 706 348 5 0 0 0 - - -, f 5;
#X floatatom 580 384 5 0 0 0 - - -, f 5;
#X floatatom 705 425 5 0 0 0 - - -, f 5;
#X floatatom 580 462 5 0 0 0 - - -, f 5;
#X floatatom 704 507 5 0 0 0 - - -, f 5;
#X floatatom 580 546 5 0 0 0 - - -, f 5;
#X text 681 348 > 0;
#X floatatom 324 246 5 0 0 0 - - -, f 5;
#X obj 315 174 r longitude;
#X obj 315 223 clip -181 181;
#X obj -83 366 moses -15;
#X text 38 387 > -15;
#X text -123 427 < -15;
#X obj -82 447 moses -45;
#X text -122 509 < -45;
#X text 37 457 < -15;
#X text 37 469 > -45;
#X text 68 487 Greenland \, E. S. America;
#X obj -82 530 moses -105;
#X text 37 552 > -105;
#X text 72 570 E. USA \, Cent. America \, W. S. America;
#X text 72 570 E. USA \, Cent. America \, W. S. America;
#X floatatom -81 589 5 0 0 0 - - -, f 5;
#X floatatom 2 625 5 0 0 0 - - -, f 5;
#X text -121 588 < -105;
#X obj -81 609 moses -150;
#X text 38 620 < -105;
#X text 38 631 > -150;
#X text 78 647 W. N. America;
#X text 37 541 < -45;
#X text 38 375 < 0;
#X text 545 380 > 0;
#X floatatom -82 678 5 0 0 0 - - -, f 5;
#X floatatom 1 714 5 0 0 0 - - -, f 5;
#X text -122 677 < -150;
#X text 37 709 < -150;
#X text 37 720 > -180;
#X text 77 736 Alaska \, Hawaii;
#X floatatom -82 771 5 0 0 0 - - -, f 5;
#X text -252 797 never be activated;
#X text -246 786 this level should;
#X text -129 770 < -180;
#X obj -82 698 moses -181;
#X text -221 -176 Western Hemisphere:;
#X text -236 -212 (bang name) = (Some locations);
#X text -265 -285 (PAPERWEIGHT);
#X text -234 -235 INDEX OF MERIDIANS;
#X obj 706 368 moses 15;
#X text 545 390 < 15;
#X text 412 405 W./Cent. Africa \, W. Europe;
#X text 78 404 W. Africa \, UK \, Spain;
#X text 743 424 > 15;
#X text 547 456 > 15;
#X text 547 466 < 45;
#X obj 705 446 moses 45;
#X text 419 483 E.Europe \, Cent./E. Africa;
#X obj 704 529 moses 75;
#X text 547 540 > 45;
#X text 547 551 < 75;
#X text 367 567 Madagascar \, Middle East \, W. Russia;
#X floatatom 706 588 5 0 0 0 - - -, f 5;
#X floatatom 582 627 5 0 0 0 - - -, f 5;
#X obj 706 610 moses 120;
#X text 543 632 < 120;
#X text 543 621 > 75;
#X text 399 648 India \, S. Asia \, Korea \, Russia;
#X floatatom 706 675 5 0 0 0 - - -, f 5;
#X floatatom 582 714 5 0 0 0 - - -, f 5;
#X obj 706 697 moses 150;
#X text 543 708 > 120;
#X text 543 719 < 150;
#X floatatom 706 763 5 0 0 0 - - -, f 5;
#X floatatom 582 802 5 0 0 0 - - -, f 5;
#X obj 706 785 moses 181;
#X text 543 796 > 150;
#X text 543 807 < 180;
#X text 441 823 New Zealand \, E. Russia;
#X text 344 734 Austrailia \, Phillipines \, Japan \, Russia;
#X floatatom 757 862 5 0 0 0 - - -, f 5;
#X text 637 867 never be activated;
#X text 643 856 this level should;
#X text -219 -28 Eastern Hemisphere:;
#X text -190 0 0-15 = W./Cent. Africa \, W. Europe;
#X text -192 25 15-45 = E.Europe \, Cent./E. Africa;
#X text -192 49 45-75= Madagascar \, Middle East \, W. Russia;
#X text -192 74 75-120 = India \, S. Asia \, Korea \, Russia;
#X text -193 100 120-150 = Austrailia \, Phillipines \, Japan \, Russia
;
#X text -192 123 150-180 = New Zealand \, E. Russia;
#X text -193 -56 -15-0 = W. Africa \, UK \, Spain...;
#X text -194 -80 -45--15 = Greenland \, E. S. America...;
#X text -195 -106 -105--45 = E. USA \, Cent. America \, W. S. America...
;
#X text -195 -132 -150--105 = W. N. America...;
#X text -193 -153 -180--150 = Alaska \, Hawaii...;
#X obj 3 404 s wauks;
#X obj 2 487 s gesa;
#X obj 1 568 s eusa;
#X obj 1 647 s wna;
#X obj 0 736 s ah;
#X obj 580 404 s wcawe;
#X obj 580 482 s eecea;
#X obj 580 566 s mmewr;
#X obj 582 647 s isakr;
#X obj 582 734 s apjr;
#X obj 582 822 s nzer;
#X connect 0 0 20 0;
#X connect 1 0 21 0;
#X connect 3 0 24 0;
#X connect 4 0 104 0;
#X connect 5 0 29 0;
#X connect 6 0 105 0;
#X connect 7 0 106 0;
#X connect 8 0 1 0;
#X connect 8 1 11 0;
#X connect 11 0 58 0;
#X connect 12 0 109 0;
#X connect 13 0 65 0;
#X connect 14 0 110 0;
#X connect 15 0 67 0;
#X connect 16 0 111 0;
#X connect 19 0 0 0;
#X connect 20 0 18 0;
#X connect 20 0 8 0;
#X connect 21 0 3 0;
#X connect 21 1 4 0;
#X connect 24 0 5 0;
#X connect 24 1 6 0;
#X connect 29 0 33 0;
#X connect 29 1 7 0;
#X connect 33 0 36 0;
#X connect 34 0 107 0;
#X connect 36 0 43 0;
#X connect 36 1 34 0;
#X connect 43 0 53 0;
#X connect 44 0 108 0;
#X connect 53 0 49 0;
#X connect 53 1 44 0;
#X connect 58 0 12 0;
#X connect 58 1 13 0;
#X connect 65 0 14 0;
#X connect 65 1 15 0;
#X connect 67 0 16 0;
#X connect 67 1 71 0;
#X connect 71 0 73 0;
#X connect 72 0 112 0;
#X connect 73 0 72 0;
#X connect 73 1 77 0;
#X connect 77 0 79 0;
#X connect 78 0 113 0;
#X connect 79 0 78 0;
#X connect 79 1 82 0;
#X connect 82 0 84 0;
#X connect 83 0 114 0;
#X connect 84 0 83 0;
#X connect 84 1 89 0;
#X restore 18 385 pd sort-longitude;
#X text 96 483 Western Hemisphere:;
#X text 98 630 Eastern Hemisphere:;
#X text 43 425 -input: send "longitude";
#X text 43 444 -output: "recieve" bang from one of 11 options:;
#X text 13 175 -activates one of 6 regions based on coordinate.;
#X text 16 406 -activates one of 11 regions based on coordinate.;
#X text 118 601 -15-0 = W. Africa \, UK \, Spain...;
#X text 117 577 -45--15 = Greenland \, E. S. America...;
#X text 116 551 -105--45 = E. USA \, Cent. America \, W. S. America...
;
#X text 116 525 -150--105 = W. N. America...;
#X text 118 501 -180--150 = Alaska \, Hawaii...;
#X text 86 463 INDEX (key: bang name = some locations);
#X text 124 653 0-15 = W./Cent. Africa \, W. Europe...;
#X text 122 677 15-45 = E.Europe \, Cent./E. Africa...;
#X text 122 700 45-75 = Madagascar \, Middle East \, W. Russia...;
#X text 122 724 75-120 = India \, S. Asia \, Korea \, Russia...;
#X text 122 749 120-150 = Austrailia \, Phillipines \, Japan \, Russia...
;
#X text 122 772 150-180 = New Zealand \, E. Russia...;
#X obj 46 25 s stopit;
#X obj 46 2 bng 15 250 50 0 empty empty empty 17 7 0 10 -258113 -1
-1;
#N canvas 0 23 777 702 n-arctic 0;
#X obj 197 385 vcf~, f 9;
#X obj 169 358 noise~;
#X obj 196 579 dac~;
#X floatatom 222 249 5 0 0 0 - - -, f 5;
#X floatatom 428 389 5 0 0 0 - - -, f 5;
#X obj 222 211 line, f 6;
#X msg 284 173 \$1;
#X obj 210 128 select 0 1;
#X obj 179 40 tgl 15 0 empty empty empty 17 7 0 10 -262144 -1 -1 1
1;
#X floatatom 169 111 5 0 0 0 - - -, f 5;
#X obj 211 92 random 2;
#X obj 334 78 random 10000;
#X floatatom 338 137 5 0 0 0 - - -, f 5;
#X obj 328 106 + 2000;
#X obj 307 221 bng 15 250 50 0 empty empty empty 17 7 0 10 -262144
-1 -1;
#X obj 466 323 line;
#X msg 481 303 2000;
#X obj 254 495 line~;
#X obj 254 421 r n-arctic;
#X obj 331 421 r stopit;
#X msg 331 445 0 300;
#X obj 162 15 loadbang;
#X floatatom 333 371 5 0 0 0 - - -, f 5;
#X obj 222 358 clip 350 1200;
#X msg 212 173 350;
#X msg 242 173 1200;
#X obj 428 368 clip 20 55;
#X obj 383 288 random 36;
#X obj 383 309 + 20;
#X obj 212 59 metro 1000;
#X text 268 17 whooshy windy noise;
#X msg 254 445 1 300;
#X obj 196 546 *~;
#X connect 0 0 32 0;
#X connect 1 0 0 0;
#X connect 3 0 23 0;
#X connect 4 0 22 0;
#X connect 5 0 3 0;
#X connect 6 0 5 1;
#X connect 7 0 24 0;
#X connect 7 1 25 0;
#X connect 8 0 29 0;
#X connect 10 0 7 0;
#X connect 10 0 9 0;
#X connect 11 0 13 0;
#X connect 13 0 12 0;
#X connect 13 0 6 0;
#X connect 14 0 16 0;
#X connect 14 0 27 0;
#X connect 15 0 26 0;
#X connect 16 0 15 1;
#X connect 17 0 32 1;
#X connect 18 0 31 0;
#X connect 19 0 20 0;
#X connect 20 0 17 0;
#X connect 21 0 8 0;
#X connect 22 0 0 2;
#X connect 23 0 0 1;
#X connect 24 0 5 0;
#X connect 25 0 5 0;
#X connect 25 0 14 0;
#X connect 26 0 4 0;
#X connect 27 0 28 0;
#X connect 28 0 15 0;
#X connect 29 0 10 0;
#X connect 29 0 11 0;
#X connect 31 0 17 0;
#X connect 32 0 2 0;
#X connect 32 0 2 1;
#X restore 227 225 pd n-arctic;
#X obj 161 225 s n-arctic;
#X obj 142 225 bng 15 250 50 0 empty empty empty 17 7 0 10 -262144
-1 -1;
#N canvas 0 23 740 700 s-antarctic 0;
#X obj 437 391 vcf~, f 9;
#X obj 409 364 noise~;
#X obj 436 585 dac~;
#X floatatom 462 255 5 0 0 0 - - -, f 5;
#X obj 462 217 line, f 6;
#X msg 524 179 \$1;
#X obj 450 134 select 0 1;
#X obj 419 46 tgl 15 0 empty empty empty 17 7 0 10 -262144 -1 -1 1
1;
#X floatatom 409 117 5 0 0 0 - - -, f 5;
#X obj 451 98 random 2;
#X obj 574 84 random 10000;
#X floatatom 578 143 5 0 0 0 - - -, f 5;
#X obj 568 112 + 2000;
#X obj 547 227 bng 15 250 50 0 empty empty empty 17 7 0 10 -262144
-1 -1;
#X obj 494 501 line~;
#X msg 585 451 0 300;
#X obj 419 18 loadbang;
#X obj 436 552 *~;
#X floatatom 573 377 5 0 0 0 - - -, f 5;
#X obj 452 65 metro 1000;
#X obj 462 364 clip 20 600;
#X msg 452 179 20;
#X msg 482 179 600;
#X obj 586 290 random 2;
#X obj 657 319 select 0 1;
#X obj 652 376 line, f 7;
#X text 508 23 wavey windy noise;
#X msg 646 348 1 3000;
#X msg 708 349 3 3000;
#X obj 495 431 r s-antarctic;
#X obj 585 431 r stopit;
#X floatatom 58 203 5 0 0 0 - - -, f 5;
#X obj 58 428 *~;
#X obj 85 367 *~ 0.5;
#X obj 85 396 +~ 0.5;
#X floatatom 85 314 5 0 0 0 - - -, f 5;
#X obj 84 289 random 500;
#X obj 382 553 *~;
#X floatatom 167 204 5 0 0 0 - - -, f 5;
#X obj 193 391 *~ 0.5;
#X obj 193 420 +~ 0.5;
#X floatatom 193 327 5 0 0 0 - - -, f 5;
#X obj 166 232 osc~;
#X obj 193 296 random 500;
#X obj 56 121 random 500;
#X obj 56 180 line, f 6;
#X msg 56 145 \$1;
#X obj 150 113 random 7000;
#X msg 149 155 \$1;
#X obj 40 40 r ldboy;
#X obj 54 64 t b b;
#X obj 84 267 r ldboy;
#X obj 206 251 r ldboy;
#X obj 547 247 s ldboy;
#X obj 150 133 + 2000;
#X obj 206 272 del 2000;
#X obj 85 338 osc~;
#X obj 57 231 osc~;
#X obj 193 362 osc~;
#X obj 171 449 *~;
#X obj 113 202 pow 1.1;
#X msg 390 533 0.3;
#X obj 381 510 loadbang;
#X msg 494 451 0.8 300;
#X connect 0 0 17 0;
#X connect 1 0 0 0;
#X connect 3 0 20 0;
#X connect 4 0 3 0;
#X connect 5 0 4 1;
#X connect 6 0 21 0;
#X connect 6 1 22 0;
#X connect 7 0 19 0;
#X connect 9 0 6 0;
#X connect 9 0 8 0;
#X connect 10 0 12 0;
#X connect 12 0 11 0;
#X connect 12 0 5 0;
#X connect 13 0 23 0;
#X connect 13 0 53 0;
#X connect 14 0 17 1;
#X connect 14 0 37 1;
#X connect 15 0 14 0;
#X connect 16 0 7 0;
#X connect 17 0 2 0;
#X connect 17 0 2 1;
#X connect 18 0 0 2;
#X connect 19 0 9 0;
#X connect 19 0 10 0;
#X connect 20 0 0 1;
#X connect 21 0 4 0;
#X connect 22 0 4 0;
#X connect 22 0 13 0;
#X connect 23 0 24 0;
#X connect 24 0 27 0;
#X connect 24 1 28 0;
#X connect 25 0 18 0;
#X connect 27 0 25 0;
#X connect 28 0 25 0;
#X connect 29 0 63 0;
#X connect 30 0 15 0;
#X connect 31 0 57 0;
#X connect 31 0 60 0;
#X connect 32 0 37 0;
#X connect 33 0 34 0;
#X connect 34 0 32 1;
#X connect 35 0 56 0;
#X connect 36 0 35 0;
#X connect 37 0 2 0;
#X connect 38 0 42 0;
#X connect 39 0 40 0;
#X connect 40 0 59 1;
#X connect 41 0 58 0;
#X connect 42 0 59 0;
#X connect 43 0 41 0;
#X connect 44 0 46 0;
#X connect 45 0 31 0;
#X connect 46 0 45 0;
#X connect 47 0 54 0;
#X connect 48 0 45 1;
#X connect 49 0 50 0;
#X connect 50 0 44 0;
#X connect 50 1 47 0;
#X connect 51 0 36 0;
#X connect 52 0 55 0;
#X connect 54 0 48 0;
#X connect 55 0 43 0;
#X connect 56 0 33 0;
#X connect 57 0 32 0;
#X connect 58 0 39 0;
#X connect 59 0 37 0;
#X connect 60 0 38 0;
#X connect 61 0 37 1;
#X connect 62 0 61 0;
#X connect 63 0 14 0;
#X restore 249 350 pd s-antarctic;
#X obj 142 350 bng 15 250 50 0 empty empty empty 17 7 0 10 -262144
-1 -1;
#X obj 162 350 s s-antarctic;
#N canvas 926 228 729 509 n-cancer 0;
#X obj 105 495 dac~;
#X obj 80 365 *~;
#X obj 107 342 line~;
#X obj 107 181 bng 15 250 50 0 empty empty empty 17 7 0 10 -262144
-1 -1;
#X obj 107 206 t b b;
#X obj 79 56 osc~ 200;
#X msg 192 259 0 40;
#X obj 192 235 delay 30;
#X obj 108 121 metro;
#X obj 119 99 tgl 15 0 empty empty empty 17 7 0 10 -262144 -1 -1 1
1;
#X obj 198 122 metro;
#X obj 205 96 tgl 15 0 empty empty empty 17 7 0 10 -262144 -1 -1 1
1;
#X obj 136 181 bng 15 250 50 0 empty empty empty 17 7 0 10 -262144
-1 -1;
#X obj 143 49 t b b b b;
#X obj 232 77 del 200;
#X msg 144 98 1300;
#X msg 234 99 1300;
#X text 158 181 du- dum \, du- dum;
#X msg 179 399 0 300;
#X obj 180 379 r stopit;
#X obj 178 430 line~;
#X obj 118 451 *~;
#X obj 263 382 r n-cancer;
#X msg 264 403 0.3 300;
#X msg 107 295 5 5;
#X obj 143 49;
#X obj 143 27 loadbang;
#X connect 1 0 21 0;
#X connect 2 0 1 1;
#X connect 3 0 4 0;
#X connect 4 0 24 0;
#X connect 4 1 7 0;
#X connect 5 0 1 0;
#X connect 6 0 2 0;
#X connect 7 0 6 0;
#X connect 8 0 3 0;
#X connect 9 0 8 0;
#X connect 10 0 12 0;
#X connect 11 0 10 0;
#X connect 12 0 4 0;
#X connect 13 0 9 0;
#X connect 13 1 15 0;
#X connect 13 3 14 0;
#X connect 14 0 16 0;
#X connect 14 0 11 0;
#X connect 15 0 8 1;
#X connect 16 0 10 1;
#X connect 18 0 20 0;
#X connect 19 0 18 0;
#X connect 20 0 21 1;
#X connect 21 0 0 0;
#X connect 21 0 0 1;
#X connect 22 0 23 0;
#X connect 23 0 20 0;
#X connect 24 0 2 0;
#X connect 26 0 13 0;
#X restore 228 248 pd n-cancer;
#X obj 429 551 bng 15 250 50 0 empty empty empty 17 7 0 10 -262144
-1 -1;
#X obj 291 87 s longitude;
#X obj 142 248 bng 15 250 50 0 empty empty empty 17 7 0 10 -262144
-1 -1;
#X obj 162 247 s n-cancer;
#X text 303 248 heartbeat;
#X text 298 225 airy wind;
#X text 340 350 watery wind;
#X obj 142 275 bng 15 250 50 0 empty empty empty 17 7 0 10 -262144
-1 -1;
#X obj 165 275 s n-equator;
#N canvas 288 152 1286 817 n-equator 0;
#X obj 486 674 r n-equator;
#X obj 497 729 line~;
#X obj 353 766 dac~;
#X msg 560 699 0 300;
#X obj 353 741 *~;
#X msg 502 700 0.5 300;
#X obj 567 674 r stopit;
#X obj 209 316 line~;
#X obj 232 253 t b b;
#X floatatom 111 320 5 0 0 0 - - -, f 5;
#X obj 140 420 *~;
#X obj 111 270 random 400;
#X obj 111 299 + 600;
#X obj 111 369 lop~;
#X obj 91 243 noise~;
#X obj 260 10 tgl 15 0 empty empty empty 17 7 0 10 -262144 -1 -1 1
1;
#X obj 143 163 bng 15 250 50 0 empty empty empty 17 7 0 10 -262144
-1 -1;
#X obj 172 101 del 600;
#X obj 115 126 del 200;
#X obj 191 149 bng 15 250 50 0 empty empty empty 17 7 0 10 -262144
-1 -1;
#X obj 239 130 bng 15 250 50 0 empty empty empty 17 7 0 10 -262144
-1 -1;
#X obj 491 162 bng 15 250 50 0 empty empty empty 17 7 0 10 -262144
-1 -1;
#X obj 520 100 del 600;
#X obj 463 125 del 200;
#X obj 539 148 bng 15 250 50 0 empty empty empty 17 7 0 10 -262144
-1 -1;
#X obj 587 129 bng 15 250 50 0 empty empty empty 17 7 0 10 -262144
-1 -1;
#X obj 526 226 bng 15 250 50 0 empty empty empty 17 7 0 10 -262144
-1 -1;
#X obj 600 446 line~;
#X floatatom 481 436 5 0 0 0 - - -, f 5;
#X obj 518 536 *~;
#X obj 519 569 *~ 0.6;
#X obj 486 477 osc~;
#X obj 543 300 t b b b;
#X obj 481 415 + 800;
#X msg 596 420 1 10;
#X obj 640 381 del 30;
#X obj 480 386 random 30;
#X obj 593 195 del 400;
#X obj 331 236 float;
#X obj 372 237 + 1;
#X msg 308 369 293;
#X msg 339 369 698;
#X msg 372 370 440;
#X msg 412 369 880;
#X floatatom 335 289 5 0 0 0 - - -, f 5;
#X obj 334 321 select 0 1 2 3;
#X msg 312 424 \$1;
#X obj 335 204 metro 7000;
#X obj 336 457 bng 15 250 50 0 empty empty empty 17 7 0 10 -262144
-1 -1;
#X obj 336 260 % 4;
#X obj 214 43 metro 1000;
#X obj 237 85 del 900;
#X obj 623 24 metro 1000;
#X obj 585 83 del 900;
#X msg 649 420 0 10;
#X msg 210 290 1 \, 0 60;
#X obj 141 452 *~ 0.7;
#X obj 339 71 s bass-equator;
#X obj 186 -11 loadbang;
#X connect 0 0 5 0;
#X connect 1 0 4 1;
#X connect 3 0 1 0;
#X connect 4 0 2 0;
#X connect 4 0 2 1;
#X connect 5 0 1 0;
#X connect 6 0 3 0;
#X connect 7 0 10 1;
#X connect 8 0 11 0;
#X connect 8 1 55 0;
#X connect 9 0 13 1;
#X connect 10 0 56 0;
#X connect 11 0 12 0;
#X connect 12 0 9 0;
#X connect 13 0 10 0;
#X connect 14 0 13 0;
#X connect 15 0 47 0;
#X connect 15 0 50 0;
#X connect 15 0 52 0;
#X connect 15 0 57 0;
#X connect 16 0 8 0;
#X connect 17 0 18 0;
#X connect 17 0 19 0;
#X connect 18 0 16 0;
#X connect 19 0 8 0;
#X connect 20 0 8 0;
#X connect 21 0 26 0;
#X connect 21 0 37 0;
#X connect 22 0 23 0;
#X connect 22 0 24 0;
#X connect 23 0 21 0;
#X connect 24 0 26 0;
#X connect 24 0 37 0;
#X connect 25 0 26 0;
#X connect 25 0 37 0;
#X connect 26 0 32 0;
#X connect 27 0 29 1;
#X connect 28 0 31 0;
#X connect 29 0 30 0;
#X connect 30 0 4 0;
#X connect 31 0 29 0;
#X connect 32 0 36 0;
#X connect 32 1 34 0;
#X connect 32 2 35 0;
#X connect 33 0 28 0;
#X connect 34 0 27 0;
#X connect 35 0 54 0;
#X connect 36 0 33 0;
#X connect 37 0 26 0;
#X connect 38 0 39 0;
#X connect 38 0 49 0;
#X connect 39 0 38 1;
#X connect 40 0 46 0;
#X connect 41 0 46 0;
#X connect 42 0 46 0;
#X connect 43 0 46 0;
#X connect 44 0 45 0;
#X connect 45 0 40 0;
#X connect 45 1 41 0;
#X connect 45 2 42 0;
#X connect 45 3 43 0;
#X connect 46 0 33 1;
#X connect 46 0 48 0;
#X connect 47 0 38 0;
#X connect 49 0 44 0;
#X connect 50 0 51 0;
#X connect 51 0 17 0;
#X connect 51 0 20 0;
#X connect 52 0 53 0;
#X connect 53 0 22 0;
#X connect 53 0 25 0;
#X connect 54 0 27 0;
#X connect 55 0 7 0;
#X connect 56 0 4 0;
#X connect 58 0 15 0;
#X restore 239 275 pd n-equator;
#X obj 300 500 bng 15 250 50 0 empty empty empty 17 7 0 10 -262144
-1 -1;
#X text 320 275 kinda tropical?;
#X obj 294 524 bng 15 250 50 0 empty empty empty 17 7 0 10 -262144
-1 -1;
#X obj 142 326 bng 15 250 50 0 empty empty empty 17 7 0 10 -262144
-1 -1;
#X obj 162 326 s s-capricorn;
#N canvas 0 23 1291 700 s-capricorn 0;
#X obj 419 322 line~;
#X obj 302 174 bng 15 250 50 0 empty empty empty 17 7 0 10 -262144
-1 -1;
#X obj 442 259 t b b;
#X floatatom 321 326 5 0 0 0 - - -, f 5;
#X obj 350 426 *~;
#X obj 264 332 noise~;
#X obj 192 336 line~;
#X obj 215 273 t b b;
#X floatatom 94 340 5 0 0 0 - - -, f 5;
#X obj 123 440 *~;
#X obj 37 346 noise~;
#X msg 192 310 1 \, 0 70;
#X obj 262 564 *~;
#X obj 475 630 dac~;
#X obj 340 547 line~;
#X msg 353 511 0 300;
#X obj 354 490 r stopit;
#X obj 412 488 r s-capricorn;
#X msg 413 510 1 300;
#X obj 296 95 loadbang;
#X obj 296 116 tgl 15 0 empty empty empty 17 7 0 10 -262144 -1 -1 1
1;
#X obj 638 362 line~;
#X obj 617 428 *~;
#X obj 564 212 del 250;
#X obj 124 473 *~ 0.1;
#X obj 351 459 *~ 0.8;
#X obj 801 480 *~;
#X obj 1092 299 osc~ 305;
#X obj 1091 266 osc~ 200;
#X obj 1090 383 osc~ 200;
#X obj 1087 408 osc~ 200;
#X floatatom 1034 235 5 0 0 0 - - -, f 5;
#X obj 474 588 *~;
#X obj 489 548 line~;
#X obj 296 139 metro 2000;
#X obj 217 202 del 1000;
#X obj 1089 357 osc~ 500;
#X obj 1089 324 osc~ 800;
#X obj 1016 210 random 800;
#X msg 702 326 0 1500;
#X msg 638 301 0.05 500;
#X obj 702 302 del 400;
#X obj 580 232 t b b;
#X obj 58 377 lop~, f 9;
#X obj 94 319 + 600;
#X obj 93 290 random 200;
#X msg 419 296 0.6 \, 0 10;
#X obj 285 363 lop~, f 9;
#X obj 321 276 random 500;
#X obj 321 305 + 300;
#X connect 0 0 4 1;
#X connect 1 0 7 0;
#X connect 1 0 2 0;
#X connect 1 0 23 0;
#X connect 1 0 35 0;
#X connect 1 0 38 0;
#X connect 2 0 48 0;
#X connect 2 1 46 0;
#X connect 3 0 47 1;
#X connect 4 0 25 0;
#X connect 5 0 47 0;
#X connect 6 0 9 1;
#X connect 7 0 45 0;
#X connect 7 1 11 0;
#X connect 8 0 43 1;
#X connect 9 0 24 0;
#X connect 10 0 43 0;
#X connect 11 0 6 0;
#X connect 12 0 13 0;
#X connect 14 0 12 1;
#X connect 15 0 14 0;
#X connect 15 0 33 0;
#X connect 16 0 15 0;
#X connect 17 0 18 0;
#X connect 18 0 14 0;
#X connect 18 0 33 0;
#X connect 19 0 20 0;
#X connect 20 0 34 0;
#X connect 21 0 22 1;
#X connect 21 0 26 1;
#X connect 22 0 32 0;
#X connect 23 0 42 0;
#X connect 24 0 12 0;
#X connect 25 0 12 0;
#X connect 26 0 32 0;
#X connect 27 0 26 0;
#X connect 28 0 26 0;
#X connect 29 0 26 0;
#X connect 30 0 26 0;
#X connect 31 0 36 0;
#X connect 32 0 13 1;
#X connect 33 0 32 1;
#X connect 34 0 1 0;
#X connect 35 0 7 0;
#X connect 36 0 26 0;
#X connect 37 0 26 0;
#X connect 38 0 31 0;
#X connect 39 0 21 0;
#X connect 40 0 21 0;
#X connect 41 0 39 0;
#X connect 42 0 40 0;
#X connect 42 1 41 0;
#X connect 43 0 9 0;
#X connect 44 0 8 0;
#X connect 45 0 44 0;
#X connect 46 0 0 0;
#X connect 47 0 4 0;
#X connect 48 0 49 0;
#X connect 49 0 3 0;
#X restore 249 326 pd s-capricorn;
#X text 341 326 really odd (maybe not in a good way);
#X obj 142 299 bng 15 250 50 0 empty empty empty 17 7 0 10 -262144
-1 -1;
#X obj 165 299 s s-equator;
#N canvas 368 134 1286 817 s-equator 0;
#X obj 497 729 line~;
#X obj 353 766 dac~;
#X msg 560 699 0 300;
#X obj 353 741 *~;
#X msg 502 700 0.5 300;
#X obj 567 674 r stopit;
#X obj 209 316 line~;
#X obj 232 253 t b b;
#X floatatom 111 320 5 0 0 0 - - -, f 5;
#X obj 140 420 *~;
#X obj 111 369 lop~;
#X obj 91 243 noise~;
#X obj 260 10 tgl 15 0 empty empty empty 17 7 0 10 -262144 -1 -1 1
1;
#X obj 143 163 bng 15 250 50 0 empty empty empty 17 7 0 10 -262144
-1 -1;
#X obj 191 149 bng 15 250 50 0 empty empty empty 17 7 0 10 -262144
-1 -1;
#X obj 239 130 bng 15 250 50 0 empty empty empty 17 7 0 10 -262144
-1 -1;
#X obj 491 162 bng 15 250 50 0 empty empty empty 17 7 0 10 -262144
-1 -1;
#X obj 539 148 bng 15 250 50 0 empty empty empty 17 7 0 10 -262144
-1 -1;
#X obj 587 129 bng 15 250 50 0 empty empty empty 17 7 0 10 -262144
-1 -1;
#X obj 526 226 bng 15 250 50 0 empty empty empty 17 7 0 10 -262144
-1 -1;
#X obj 600 446 line~;
#X floatatom 481 436 5 0 0 0 - - -, f 5;
#X obj 518 536 *~;
#X obj 519 569 *~ 0.6;
#X obj 486 477 osc~;
#X obj 543 300 t b b b;
#X msg 596 420 1 10;
#X obj 640 381 del 30;
#X obj 480 386 random 30;
#X obj 593 195 del 400;
#X obj 331 236 float;
#X obj 372 237 + 1;
#X floatatom 335 289 5 0 0 0 - - -, f 5;
#X obj 334 321 select 0 1 2 3;
#X msg 312 424 \$1;
#X obj 335 204 metro 7000;
#X obj 336 457 bng 15 250 50 0 empty empty empty 17 7 0 10 -262144
-1 -1;
#X obj 336 260 % 4;
#X msg 649 420 0 10;
#X msg 210 290 1 \, 0 60;
#X obj 141 452 *~ 0.7;
#X obj 320 54 s bass-equator;
#X obj 486 674 r s-equator;
#X msg 339 369 440;
#X msg 372 370 349;
#X msg 412 369 698;
#X obj 463 125 del 70;
#X obj 237 85 del 640;
#X obj 172 101 del 350;
#X obj 115 126 del 100;
#X obj 585 83 del 640;
#X obj 520 100 del 350;
#X obj 213 43 metro 900;
#X obj 623 24 metro 900;
#X obj 111 299 + 100;
#X obj 111 270 random 500;
#X msg 308 369 220;
#X obj 481 415 + 200;
#X obj 416 524 osc~;
#X obj 416 450 + 240;
#X floatatom 416 474 5 0 0 0 - - -, f 5;
#X msg 416 495 \$1;
#X obj 196 -9 loadbang;
#X connect 0 0 3 1;
#X connect 2 0 0 0;
#X connect 3 0 1 0;
#X connect 3 0 1 1;
#X connect 4 0 0 0;
#X connect 5 0 2 0;
#X connect 6 0 9 1;
#X connect 7 0 55 0;
#X connect 7 1 39 0;
#X connect 8 0 10 1;
#X connect 9 0 40 0;
#X connect 10 0 9 0;
#X connect 11 0 10 0;
#X connect 12 0 35 0;
#X connect 12 0 41 0;
#X connect 12 0 52 0;
#X connect 12 0 53 0;
#X connect 13 0 7 0;
#X connect 14 0 7 0;
#X connect 15 0 7 0;
#X connect 16 0 19 0;
#X connect 16 0 29 0;
#X connect 17 0 19 0;
#X connect 17 0 29 0;
#X connect 18 0 19 0;
#X connect 18 0 29 0;
#X connect 19 0 25 0;
#X connect 20 0 22 1;
#X connect 21 0 24 0;
#X connect 22 0 23 0;
#X connect 23 0 3 0;
#X connect 24 0 22 0;
#X connect 25 0 28 0;
#X connect 25 1 26 0;
#X connect 25 2 27 0;
#X connect 26 0 20 0;
#X connect 27 0 38 0;
#X connect 28 0 57 0;
#X connect 28 0 59 0;
#X connect 29 0 19 0;
#X connect 30 0 31 0;
#X connect 30 0 37 0;
#X connect 31 0 30 1;
#X connect 32 0 33 0;
#X connect 33 0 56 0;
#X connect 33 1 43 0;
#X connect 33 2 44 0;
#X connect 33 3 45 0;
#X connect 34 0 36 0;
#X connect 34 0 28 1;
#X connect 35 0 30 0;
#X connect 37 0 32 0;
#X connect 38 0 20 0;
#X connect 39 0 6 0;
#X connect 40 0 3 0;
#X connect 42 0 4 0;
#X connect 43 0 34 0;
#X connect 44 0 34 0;
#X connect 45 0 34 0;
#X connect 46 0 16 0;
#X connect 47 0 15 0;
#X connect 47 0 48 0;
#X connect 48 0 14 0;
#X connect 48 0 49 0;
#X connect 49 0 13 0;
#X connect 50 0 18 0;
#X connect 50 0 51 0;
#X connect 51 0 17 0;
#X connect 51 0 46 0;
#X connect 52 0 47 0;
#X connect 53 0 50 0;
#X connect 54 0 8 0;
#X connect 55 0 54 0;
#X connect 56 0 34 0;
#X connect 57 0 21 0;
#X connect 58 0 22 0;
#X connect 59 0 60 0;
#X connect 60 0 61 0;
#X connect 61 0 58 0;
#X connect 62 0 12 0;
#X restore 239 299 pd s-equator;
#X obj 197 -77 r long;
#X obj 157 -77 r lat;
#X obj 156 -57 loadbang;
#X text 209 -56 (loadbang placed for convenience with WebPD);
#X text 322 300 more upbeat I guess?;
#X obj 351 576 bng 15 250 50 0 empty empty empty 17 7 0 10 -262144
-1 -1;
#X obj 315 600 bng 15 250 50 0 empty empty empty 17 7 0 10 -262144
-1 -1;
#X obj 352 653 bng 15 250 50 0 empty empty empty 17 7 0 10 -262144
-1 -1;
#X text 476 654 comment;
#X text 448 602 comment;
#X text 514 576 comment;
#X obj 351 677 bng 15 250 50 0 empty empty empty 17 7 0 10 -262144
-1 -1;
#X text 475 678 comment;
#X obj 403 699 bng 15 250 50 0 empty empty empty 17 7 0 10 -262144
-1 -1;
#X text 527 700 comment;
#X obj 378 723 bng 15 250 50 0 empty empty empty 17 7 0 10 -262144
-1 -1;
#X text 514 723 comment;
#X obj 437 749 bng 15 250 50 0 empty empty empty 17 7 0 10 -262144
-1 -1;
#X text 588 748 comment;
#X obj 345 773 bng 15 250 50 0 empty empty empty 17 7 0 10 -262144
-1 -1;
#X text 499 772 comment;
#X text -154 -113 paperweight;
#X text 17 875 paperweight;
#X obj 315 524 s wna;
#X obj 321 500 s ah;
#X obj 372 576 s gesa;
#N canvas 0 23 1413 965 wauks 0;
#X obj 570 704 osc~;
#X obj 894 812 line~;
#X obj 917 638 bng 15 250 50 0 empty empty empty 17 7 0 10 -262144
-1 -1;
#X obj 831 978 dac~;
#X floatatom 773 801 5 0 0 0 - - -, f 5;
#X obj 825 864 *~;
#X obj 917 697 t b b b;
#X obj 773 774 + 180;
#X obj 571 830 *~;
#X obj 591 441 float;
#X obj 632 442 + 1;
#X floatatom 596 486 5 0 0 0 - - -, f 5;
#X obj 924 660 s counter;
#X obj 584 414 r counter;
#X obj 570 683 line;
#X obj 699 793 +~ 0.3;
#X msg 966 765 0 200;
#X obj 592 526 select 0 1 2 3 4 5 6 7;
#X obj 915 459 tgl 15 0 empty empty empty 17 7 0 10 -262144 -1 -1 1
1;
#X obj 596 465 % 8;
#X obj 773 744 random 500;
#X msg 566 574 293;
#X msg 597 574 698;
#X msg 630 575 440;
#X msg 670 574 880;
#X msg 756 574 349;
#X msg 790 576 523;
#X obj 904 431 loadbang;
#X msg 877 872 0 300;
#X obj 877 849 r stopit;
#X obj 877 897 line~;
#X obj 272 767 osc~;
#X obj 283 450 float;
#X obj 324 451 + 1;
#X floatatom 288 495 5 0 0 0 - - -, f 5;
#X obj 284 398 r counter;
#X obj 272 746 line;
#X obj 288 579 select 0 1 2 3 4 5 6 7;
#X obj 288 474 % 8;
#X msg 262 627 293;
#X msg 293 627 698;
#X msg 326 628 440;
#X msg 366 627 880;
#X msg 452 627 349;
#X msg 486 629 523;
#X obj 288 516 + 2;
#X obj 826 937 *~;
#X msg 834 801 0.1;
#X floatatom 289 547 5 0 0 0 - - -, f 5;
#X obj 301 428 delay 1000;
#X obj 915 609 metro 7000;
#X text 1011 606 changes every 7;
#X obj 966 736 delay 7000;
#X text 1039 736 changes every 7;
#X msg 266 682 \$1 10;
#X msg 570 660 \$1 10;
#X msg 403 627 440;
#X msg 707 574 440;
#X msg 938 872 0.3 300;
#X obj 699 740 osc~ 0.2;
#X obj 699 764 *~ 0.7;
#X msg 896 751 10 50;
#X obj 698 695 osc~ 0.25;
#X obj 698 718 +~;
#X obj 833 779 loadbang;
#X obj 937 849 r wauks;
#X obj 766 834 vcf~, f 11;
#X connect 0 0 8 0;
#X connect 1 0 5 1;
#X connect 2 0 6 0;
#X connect 2 0 12 0;
#X connect 4 0 66 1;
#X connect 5 0 46 0;
#X connect 6 0 20 0;
#X connect 6 1 61 0;
#X connect 6 2 52 0;
#X connect 7 0 4 0;
#X connect 8 0 66 0;
#X connect 9 0 10 0;
#X connect 9 0 19 0;
#X connect 10 0 9 1;
#X connect 11 0 17 0;
#X connect 13 0 9 0;
#X connect 14 0 0 0;
#X connect 15 0 8 1;
#X connect 16 0 1 0;
#X connect 17 0 21 0;
#X connect 17 1 22 0;
#X connect 17 2 23 0;
#X connect 17 3 24 0;
#X connect 17 4 57 0;
#X connect 17 5 25 0;
#X connect 17 6 26 0;
#X connect 18 0 50 0;
#X connect 19 0 11 0;
#X connect 20 0 7 0;
#X connect 21 0 55 0;
#X connect 22 0 55 0;
#X connect 23 0 55 0;
#X connect 24 0 55 0;
#X connect 25 0 55 0;
#X connect 26 0 55 0;
#X connect 27 0 18 0;
#X connect 28 0 30 0;
#X connect 29 0 28 0;
#X connect 30 0 46 1;
#X connect 31 0 8 0;
#X connect 32 0 33 0;
#X connect 32 0 38 0;
#X connect 33 0 32 1;
#X connect 34 0 45 0;
#X connect 35 0 49 0;
#X connect 36 0 31 0;
#X connect 37 0 39 0;
#X connect 37 1 40 0;
#X connect 37 2 41 0;
#X connect 37 3 42 0;
#X connect 37 4 56 0;
#X connect 37 5 43 0;
#X connect 37 6 44 0;
#X connect 38 0 34 0;
#X connect 39 0 54 0;
#X connect 40 0 54 0;
#X connect 41 0 54 0;
#X connect 42 0 54 0;
#X connect 43 0 54 0;
#X connect 44 0 54 0;
#X connect 45 0 48 0;
#X connect 46 0 3 0;
#X connect 46 0 3 1;
#X connect 47 0 66 2;
#X connect 48 0 37 0;
#X connect 49 0 32 0;
#X connect 50 0 2 0;
#X connect 52 0 16 0;
#X connect 54 0 36 0;
#X connect 55 0 14 0;
#X connect 56 0 54 0;
#X connect 57 0 55 0;
#X connect 58 0 30 0;
#X connect 59 0 60 0;
#X connect 60 0 15 0;
#X connect 61 0 1 0;
#X connect 62 0 63 0;
#X connect 63 0 59 0;
#X connect 64 0 47 0;
#X connect 65 0 58 0;
#X connect 66 0 5 0;
#X restore 387 600 pd wauks;
#X obj 373 653 s wcawe;
#X obj 372 677 s eecea;
#X obj 424 699 s mmewr;
#X obj 399 723 s isakr;
#X obj 458 749 s apjr;
#N canvas 0 223 935 669 ah 0;
#X obj 570 704 osc~;
#X obj 917 638 bng 15 250 50 0 empty empty empty 17 7 0 10 -262144
-1 -1;
#X obj 831 978 dac~;
#X floatatom 774 801 5 0 0 0 - - -, f 5;
#X obj 825 864 *~;
#X obj 917 697 t b b b;
#X obj 571 830 *~;
#X obj 591 441 float;
#X obj 632 442 + 1;
#X floatatom 596 486 5 0 0 0 - - -, f 5;
#X obj 924 660 s counter;
#X obj 584 414 r counter;
#X obj 570 683 line;
#X obj 592 526 select 0 1 2 3 4 5 6 7;
#X obj 915 459 tgl 15 0 empty empty empty 17 7 0 10 -262144 -1 -1 1
1;
#X obj 596 465 % 8;
#X obj 773 744 random 500;
#X msg 566 574 293;
#X msg 597 574 698;
#X msg 630 575 440;
#X msg 670 574 880;
#X msg 756 574 349;
#X msg 790 576 523;
#X obj 904 431 loadbang;
#X msg 877 872 0 300;
#X obj 877 849 r stopit;
#X obj 877 897 line~;
#X obj 272 767 osc~;
#X obj 283 450 float;
#X obj 324 451 + 1;
#X floatatom 288 495 5 0 0 0 - - -, f 5;
#X obj 284 398 r counter;
#X obj 272 746 line;
#X obj 288 579 select 0 1 2 3 4 5 6 7;
#X obj 288 474 % 8;
#X msg 366 627 880;
#X msg 452 627 349;
#X obj 288 516 + 2;
#X obj 826 937 *~;
#X floatatom 289 547 5 0 0 0 - - -, f 5;
#X obj 301 428 delay 1000;
#X msg 266 682 \$1 10;
#X msg 570 660 \$1 10;
#X msg 707 574 440;
#X msg 262 627 880;
#X msg 293 627 440;
#X msg 326 628 523;
#X msg 403 627 523;
#X msg 486 629 220;
#X obj 600 809 +~ 0.3;
#X obj 600 762 osc~ 0.2;
#X obj 600 786 *~ 0.7;
#X obj 915 609 metro 3000;
#X msg 834 801 0.4;
#X obj 773 774 + 200;
#X msg 938 872 0.1 300;
#X obj 894 812 line~;
#X msg 966 765 0 200;
#X obj 966 735 delay 3000;
#X text 1011 606 changes every 3;
#X text 1039 736 changes every 3;
#X obj 837 776 loadbang;
#X obj 937 849 r ah;
#X obj 766 834 vcf~, f 11;
#X msg 896 751 3 50;
#X connect 0 0 6 0;
#X connect 1 0 5 0;
#X connect 1 0 10 0;
#X connect 3 0 63 1;
#X connect 4 0 38 0;
#X connect 5 0 16 0;
#X connect 5 1 64 0;
#X connect 5 2 58 0;
#X connect 6 0 63 0;
#X connect 7 0 8 0;
#X connect 7 0 15 0;
#X connect 8 0 7 1;
#X connect 9 0 13 0;
#X connect 11 0 7 0;
#X connect 12 0 0 0;
#X connect 13 0 17 0;
#X connect 13 1 18 0;
#X connect 13 2 19 0;
#X connect 13 3 20 0;
#X connect 13 4 43 0;
#X connect 13 5 21 0;
#X connect 13 6 22 0;
#X connect 14 0 52 0;
#X connect 15 0 9 0;
#X connect 16 0 54 0;
#X connect 17 0 42 0;
#X connect 18 0 42 0;
#X connect 19 0 42 0;
#X connect 20 0 42 0;
#X connect 21 0 42 0;
#X connect 22 0 42 0;
#X connect 23 0 14 0;
#X connect 24 0 26 0;
#X connect 25 0 24 0;
#X connect 26 0 38 1;
#X connect 27 0 6 0;
#X connect 28 0 29 0;
#X connect 28 0 34 0;
#X connect 29 0 28 1;
#X connect 30 0 37 0;
#X connect 31 0 40 0;
#X connect 32 0 27 0;
#X connect 33 0 44 0;
#X connect 33 1 45 0;
#X connect 33 2 46 0;
#X connect 33 3 35 0;
#X connect 33 4 47 0;
#X connect 33 5 36 0;
#X connect 33 6 48 0;
#X connect 34 0 30 0;
#X connect 35 0 41 0;
#X connect 36 0 41 0;
#X connect 37 0 39 0;
#X connect 38 0 2 0;
#X connect 38 0 2 1;
#X connect 39 0 33 0;
#X connect 40 0 28 0;
#X connect 41 0 32 0;
#X connect 42 0 12 0;
#X connect 43 0 42 0;
#X connect 44 0 41 0;
#X connect 45 0 41 0;
#X connect 46 0 41 0;
#X connect 47 0 41 0;
#X connect 48 0 41 0;
#X connect 49 0 6 1;
#X connect 50 0 51 0;
#X connect 51 0 49 0;
#X connect 52 0 1 0;
#X connect 53 0 63 2;
#X connect 54 0 3 0;
#X connect 55 0 26 0;
#X connect 56 0 4 1;
#X connect 57 0 56 0;
#X connect 58 0 57 0;
#X connect 61 0 53 0;
#X connect 62 0 55 0;
#X connect 63 0 4 0;
#X connect 64 0 56 0;
#X restore 395 500 pd ah;
#N canvas 199 217 996 765 wna 0;
#X obj 570 709 osc~;
#X obj 917 638 bng 15 250 50 0 empty empty empty 17 7 0 10 -262144
-1 -1;
#X obj 831 978 dac~;
#X floatatom 774 801 5 0 0 0 - - -, f 5;
#X obj 825 864 *~;
#X obj 917 697 t b b b;
#X obj 571 830 *~;
#X obj 591 441 float;
#X obj 632 442 + 1;
#X floatatom 596 486 5 0 0 0 - - -, f 5;
#X obj 924 660 s counter;
#X obj 584 414 r counter;
#X obj 570 683 line;
#X obj 915 459 tgl 15 0 empty empty empty 17 7 0 10 -262144 -1 -1 1
1;
#X obj 596 465 % 8;
#X obj 773 744 random 500;
#X obj 904 431 loadbang;
#X msg 877 872 0 300;
#X obj 877 849 r stopit;
#X obj 877 897 line~;
#X obj 272 767 osc~;
#X obj 283 450 float;
#X obj 324 451 + 1;
#X floatatom 288 495 5 0 0 0 - - -, f 5;
#X obj 284 398 r counter;
#X obj 266 713 line;
#X obj 288 579 select 0 1 2 3 4 5 6 7;
#X obj 288 474 % 8;
#X msg 452 627 349;
#X obj 288 516 + 2;
#X obj 826 937 *~;
#X floatatom 289 547 5 0 0 0 - - -, f 5;
#X obj 301 428 delay 1000;
#X obj 600 809 +~ 0.3;
#X obj 600 762 osc~ 0.2;
#X obj 600 786 *~ 0.7;
#X msg 834 801 0.4;
#X obj 773 774 + 200;
#X obj 894 812 line~;
#X msg 966 765 0 200;
#X text 1011 606 changes every 3;
#X text 1039 736 changes every 3;
#X msg 262 627 164;
#X msg 293 627 196;
#X msg 326 628 293;
#X msg 403 627 220;
#X msg 486 629 329;
#X obj 915 609 metro 1000;
#X obj 966 735 delay 1000;
#X obj 589 543 select 0 1 2 3 4 5 6 7;
#X msg 753 591 349;
#X msg 567 646 \$1 10;
#X msg 563 591 164;
#X msg 594 591 196;
#X msg 627 592 293;
#X msg 704 591 220;
#X msg 787 593 329;
#X msg 667 591 330;
#X msg 366 627 330;
#X msg 266 682 \$1 500;
#X obj 659 852 noise~;
#X obj 719 907 *~ 0.2;
#X msg 938 872 0.3 300;
#X obj 834 782 loadbang;
#X obj 937 849 r wna;
#X obj 766 834 vcf~, f 11;
#X msg 896 751 3 50;
#X obj 698 880 vcf~ 500 3, f 12;
#X connect 0 0 6 0;
#X connect 1 0 5 0;
#X connect 1 0 10 0;
#X connect 3 0 65 1;
#X connect 4 0 30 0;
#X connect 5 0 15 0;
#X connect 5 1 66 0;
#X connect 5 2 48 0;
#X connect 6 0 65 0;
#X connect 7 0 8 0;
#X connect 7 0 14 0;
#X connect 8 0 7 1;
#X connect 9 0 49 0;
#X connect 11 0 7 0;
#X connect 12 0 0 0;
#X connect 13 0 47 0;
#X connect 14 0 9 0;
#X connect 15 0 37 0;
#X connect 16 0 13 0;
#X connect 17 0 19 0;
#X connect 18 0 17 0;
#X connect 19 0 30 1;
#X connect 20 0 6 0;
#X connect 21 0 22 0;
#X connect 21 0 27 0;
#X connect 22 0 21 1;
#X connect 23 0 29 0;
#X connect 24 0 32 0;
#X connect 25 0 20 0;
#X connect 26 0 42 0;
#X connect 26 1 43 0;
#X connect 26 2 44 0;
#X connect 26 3 58 0;
#X connect 26 4 45 0;
#X connect 26 5 28 0;
#X connect 26 6 46 0;
#X connect 27 0 23 0;
#X connect 28 0 59 0;
#X connect 29 0 31 0;
#X connect 30 0 2 0;
#X connect 30 0 2 1;
#X connect 31 0 26 0;
#X connect 32 0 21 0;
#X connect 33 0 6 1;
#X connect 34 0 35 0;
#X connect 35 0 33 0;
#X connect 36 0 65 2;
#X connect 37 0 3 0;
#X connect 38 0 4 1;
#X connect 39 0 38 0;
#X connect 42 0 59 0;
#X connect 43 0 59 0;
#X connect 44 0 59 0;
#X connect 45 0 59 0;
#X connect 46 0 59 0;
#X connect 47 0 1 0;
#X connect 48 0 39 0;
#X connect 49 0 52 0;
#X connect 49 1 53 0;
#X connect 49 2 54 0;
#X connect 49 3 57 0;
#X connect 49 4 55 0;
#X connect 49 5 50 0;
#X connect 49 6 56 0;
#X connect 50 0 51 0;
#X connect 51 0 12 0;
#X connect 52 0 51 0;
#X connect 53 0 51 0;
#X connect 54 0 51 0;
#X connect 55 0 51 0;
#X connect 56 0 51 0;
#X connect 57 0 51 0;
#X connect 58 0 59 0;
#X connect 59 0 25 0;
#X connect 60 0 67 0;
#X connect 61 0 30 0;
#X connect 62 0 19 0;
#X connect 63 0 36 0;
#X connect 64 0 62 0;
#X connect 65 0 4 0;
#X connect 66 0 38 0;
#X connect 67 0 61 0;
#X restore 389 524 pd wna;
#X obj 450 551 s eusa;
#N canvas 0 23 1413 965 eusa 0;
#X obj 570 704 osc~;
#X obj 894 812 line~;
#X obj 917 638 bng 15 250 50 0 empty empty empty 17 7 0 10 -262144
-1 -1;
#X obj 831 978 dac~;
#X floatatom 773 801 5 0 0 0 - - -, f 5;
#X obj 825 864 *~;
#X obj 917 697 t b b b;
#X obj 773 774 + 180;
#X obj 571 830 *~;
#X obj 591 441 float;
#X obj 632 442 + 1;
#X floatatom 596 486 5 0 0 0 - - -, f 5;
#X obj 924 660 s counter;
#X obj 584 414 r counter;
#X obj 570 683 line;
#X obj 699 793 +~ 0.3;
#X msg 966 765 0 200;
#X obj 592 526 select 0 1 2 3 4 5 6 7;
#X obj 915 459 tgl 15 0 empty empty empty 17 7 0 10 -262144 -1 -1 1
1;
#X obj 596 465 % 8;
#X obj 773 744 random 500;
#X msg 566 574 293;
#X msg 597 574 698;
#X msg 630 575 440;
#X msg 670 574 880;
#X msg 756 574 349;
#X msg 790 576 523;
#X obj 904 431 loadbang;
#X msg 877 872 0 300;
#X obj 877 849 r stopit;
#X obj 877 897 line~;
#X obj 272 767 osc~;
#X obj 283 450 float;
#X obj 324 451 + 1;
#X floatatom 288 495 5 0 0 0 - - -, f 5;
#X obj 284 398 r counter;
#X obj 272 746 line;
#X obj 288 579 select 0 1 2 3 4 5 6 7;
#X obj 288 474 % 8;
#X msg 262 627 293;
#X msg 293 627 698;
#X msg 326 628 440;
#X msg 366 627 880;
#X msg 452 627 349;
#X msg 486 629 523;
#X obj 288 516 + 2;
#X obj 826 937 *~;
#X msg 834 801 0.1;
#X floatatom 289 547 5 0 0 0 - - -, f 5;
#X obj 301 428 delay 1000;
#X obj 915 609 metro 7000;
#X text 1011 606 changes every 7;
#X obj 966 736 delay 7000;
#X text 1039 736 changes every 7;
#X msg 266 682 \$1 10;
#X msg 570 660 \$1 10;
#X msg 403 627 440;
#X msg 707 574 440;
#X obj 699 740 osc~ 0.2;
#X obj 699 764 *~ 0.7;
#X obj 698 695 osc~ 0.25;
#X obj 698 718 +~;
#X obj 834 782 loadbang;
#X msg 938 872 0.2 300;
#X obj 937 849 r eusa;
#X obj 766 834 vcf~, f 11;
#X msg 896 751 2 50;
#X connect 0 0 8 0;
#X connect 1 0 5 1;
#X connect 2 0 6 0;
#X connect 2 0 12 0;
#X connect 4 0 65 1;
#X connect 5 0 46 0;
#X connect 6 0 20 0;
#X connect 6 1 66 0;
#X connect 6 2 52 0;
#X connect 7 0 4 0;
#X connect 8 0 65 0;
#X connect 9 0 10 0;
#X connect 9 0 19 0;
#X connect 10 0 9 1;
#X connect 11 0 17 0;
#X connect 13 0 9 0;
#X connect 14 0 0 0;
#X connect 15 0 8 1;
#X connect 16 0 1 0;
#X connect 17 0 21 0;
#X connect 17 1 22 0;
#X connect 17 2 23 0;
#X connect 17 3 24 0;
#X connect 17 4 57 0;
#X connect 17 5 25 0;
#X connect 17 6 26 0;
#X connect 18 0 50 0;
#X connect 19 0 11 0;
#X connect 20 0 7 0;
#X connect 21 0 55 0;
#X connect 22 0 55 0;
#X connect 23 0 55 0;
#X connect 24 0 55 0;
#X connect 25 0 55 0;
#X connect 26 0 55 0;
#X connect 27 0 18 0;
#X connect 28 0 30 0;
#X connect 29 0 28 0;
#X connect 30 0 46 1;
#X connect 31 0 8 0;
#X connect 32 0 33 0;
#X connect 32 0 38 0;
#X connect 33 0 32 1;
#X connect 34 0 45 0;
#X connect 35 0 49 0;
#X connect 36 0 31 0;
#X connect 37 0 39 0;
#X connect 37 1 40 0;
#X connect 37 2 41 0;
#X connect 37 3 42 0;
#X connect 37 4 56 0;
#X connect 37 5 43 0;
#X connect 37 6 44 0;
#X connect 38 0 34 0;
#X connect 39 0 54 0;
#X connect 40 0 54 0;
#X connect 41 0 54 0;
#X connect 42 0 54 0;
#X connect 43 0 54 0;
#X connect 44 0 54 0;
#X connect 45 0 48 0;
#X connect 46 0 3 0;
#X connect 46 0 3 1;
#X connect 47 0 65 2;
#X connect 48 0 37 0;
#X connect 49 0 32 0;
#X connect 50 0 2 0;
#X connect 52 0 16 0;
#X connect 54 0 36 0;
#X connect 55 0 14 0;
#X connect 56 0 54 0;
#X connect 57 0 55 0;
#X connect 58 0 59 0;
#X connect 59 0 15 0;
#X connect 60 0 61 0;
#X connect 61 0 58 0;
#X connect 62 0 47 0;
#X connect 63 0 30 0;
#X connect 64 0 63 0;
#X connect 65 0 5 0;
#X connect 66 0 1 0;
#X restore 518 551 pd eusa;
#N canvas 0 23 1413 965 gesa 0;
#X obj 570 704 osc~;
#X obj 894 812 line~;
#X obj 917 638 bng 15 250 50 0 empty empty empty 17 7 0 10 -262144
-1 -1;
#X obj 831 978 dac~;
#X floatatom 773 801 5 0 0 0 - - -, f 5;
#X obj 825 864 *~;
#X obj 917 697 t b b b;
#X obj 773 774 + 180;
#X obj 571 830 *~;
#X obj 591 441 float;
#X obj 632 442 + 1;
#X floatatom 596 486 5 0 0 0 - - -, f 5;
#X obj 924 660 s counter;
#X obj 584 414 r counter;
#X obj 570 683 line;
#X obj 699 793 +~ 0.3;
#X msg 966 765 0 200;
#X obj 592 526 select 0 1 2 3 4 5 6 7;
#X obj 915 459 tgl 15 0 empty empty empty 17 7 0 10 -262144 -1 -1 1
1;
#X obj 596 465 % 8;
#X obj 773 744 random 500;
#X msg 566 574 293;
#X msg 597 574 698;
#X msg 630 575 440;
#X msg 670 574 880;
#X msg 756 574 349;
#X msg 790 576 523;
#X obj 904 431 loadbang;
#X msg 877 872 0 300;
#X obj 877 849 r stopit;
#X obj 877 897 line~;
#X obj 272 767 osc~;
#X obj 283 450 float;
#X obj 324 451 + 1;
#X floatatom 288 495 5 0 0 0 - - -, f 5;
#X obj 284 398 r counter;
#X obj 272 746 line;
#X obj 288 579 select 0 1 2 3 4 5 6 7;
#X obj 288 474 % 8;
#X msg 262 627 293;
#X msg 293 627 698;
#X msg 326 628 440;
#X msg 366 627 880;
#X msg 452 627 349;
#X msg 486 629 523;
#X obj 288 516 + 2;
#X obj 826 937 *~;
#X msg 834 801 0.1;
#X floatatom 289 547 5 0 0 0 - - -, f 5;
#X obj 301 428 delay 1000;
#X obj 915 609 metro 7000;
#X text 1011 606 changes every 7;
#X obj 966 736 delay 7000;
#X text 1039 736 changes every 7;
#X msg 266 682 \$1 10;
#X msg 570 660 \$1 10;
#X msg 403 627 440;
#X msg 707 574 440;
#X msg 938 872 0.3 300;
#X obj 699 740 osc~ 0.2;
#X obj 699 764 *~ 0.7;
#X msg 896 751 10 50;
#X obj 698 695 osc~ 0.25;
#X obj 698 718 +~;
#X obj 831 782 loadbang;
#X obj 937 849 r gesa;
#X obj 766 834 vcf~, f 11;
#X connect 0 0 8 0;
#X connect 1 0 5 1;
#X connect 2 0 6 0;
#X connect 2 0 12 0;
#X connect 4 0 66 1;
#X connect 5 0 46 0;
#X connect 6 0 20 0;
#X connect 6 1 61 0;
#X connect 6 2 52 0;
#X connect 7 0 4 0;
#X connect 8 0 66 0;
#X connect 9 0 10 0;
#X connect 9 0 19 0;
#X connect 10 0 9 1;
#X connect 11 0 17 0;
#X connect 13 0 9 0;
#X connect 14 0 0 0;
#X connect 15 0 8 1;
#X connect 16 0 1 0;
#X connect 17 0 21 0;
#X connect 17 1 22 0;
#X connect 17 2 23 0;
#X connect 17 3 24 0;
#X connect 17 4 57 0;
#X connect 17 5 25 0;
#X connect 17 6 26 0;
#X connect 18 0 50 0;
#X connect 19 0 11 0;
#X connect 20 0 7 0;
#X connect 21 0 55 0;
#X connect 22 0 55 0;
#X connect 23 0 55 0;
#X connect 24 0 55 0;
#X connect 25 0 55 0;
#X connect 26 0 55 0;
#X connect 27 0 18 0;
#X connect 28 0 30 0;
#X connect 29 0 28 0;
#X connect 30 0 46 1;
#X connect 31 0 8 0;
#X connect 32 0 33 0;
#X connect 32 0 38 0;
#X connect 33 0 32 1;
#X connect 34 0 45 0;
#X connect 35 0 49 0;
#X connect 36 0 31 0;
#X connect 37 0 39 0;
#X connect 37 1 40 0;
#X connect 37 2 41 0;
#X connect 37 3 42 0;
#X connect 37 4 56 0;
#X connect 37 5 43 0;
#X connect 37 6 44 0;
#X connect 38 0 34 0;
#X connect 39 0 54 0;
#X connect 40 0 54 0;
#X connect 41 0 54 0;
#X connect 42 0 54 0;
#X connect 43 0 54 0;
#X connect 44 0 54 0;
#X connect 45 0 48 0;
#X connect 46 0 3 0;
#X connect 46 0 3 1;
#X connect 47 0 66 2;
#X connect 48 0 37 0;
#X connect 49 0 32 0;
#X connect 50 0 2 0;
#X connect 52 0 16 0;
#X connect 54 0 36 0;
#X connect 55 0 14 0;
#X connect 56 0 54 0;
#X connect 57 0 55 0;
#X connect 58 0 30 0;
#X connect 59 0 60 0;
#X connect 60 0 15 0;
#X connect 61 0 1 0;
#X connect 62 0 63 0;
#X connect 63 0 59 0;
#X connect 64 0 47 0;
#X connect 65 0 58 0;
#X connect 66 0 5 0;
#X restore 435 576 pd gesa;
#X obj 336 600 s wauks;
#N canvas 0 23 1413 965 wcawe 0;
#X obj 570 704 osc~;
#X obj 894 812 line~;
#X obj 917 638 bng 15 250 50 0 empty empty empty 17 7 0 10 -262144
-1 -1;
#X obj 831 978 dac~;
#X floatatom 773 801 5 0 0 0 - - -, f 5;
#X obj 825 864 *~;
#X obj 917 697 t b b b;
#X obj 773 774 + 180;
#X obj 571 830 *~;
#X obj 591 441 float;
#X obj 632 442 + 1;
#X floatatom 596 486 5 0 0 0 - - -, f 5;
#X obj 924 660 s counter;
#X obj 584 414 r counter;
#X obj 570 683 line;
#X obj 699 793 +~ 0.3;
#X msg 966 765 0 200;
#X obj 592 526 select 0 1 2 3 4 5 6 7;
#X obj 915 459 tgl 15 0 empty empty empty 17 7 0 10 -262144 -1 -1 1
1;
#X obj 596 465 % 8;
#X obj 773 744 random 500;
#X msg 566 574 293;
#X msg 597 574 698;
#X msg 630 575 440;
#X msg 670 574 880;
#X msg 756 574 349;
#X msg 790 576 523;
#X obj 904 431 loadbang;
#X msg 877 872 0 300;
#X obj 877 849 r stopit;
#X obj 877 897 line~;
#X obj 272 767 osc~;
#X obj 283 450 float;
#X obj 324 451 + 1;
#X floatatom 288 495 5 0 0 0 - - -, f 5;
#X obj 284 398 r counter;
#X obj 272 746 line;
#X obj 288 579 select 0 1 2 3 4 5 6 7;
#X obj 288 474 % 8;
#X msg 262 627 293;
#X msg 293 627 698;
#X msg 326 628 440;
#X msg 366 627 880;
#X msg 452 627 349;
#X msg 486 629 523;
#X obj 288 516 + 2;
#X obj 826 937 *~;
#X msg 834 801 0.1;
#X floatatom 289 547 5 0 0 0 - - -, f 5;
#X obj 301 428 delay 1000;
#X obj 915 609 metro 7000;
#X text 1011 606 changes every 7;
#X obj 966 736 delay 7000;
#X text 1039 736 changes every 7;
#X msg 266 682 \$1 10;
#X msg 570 660 \$1 10;
#X msg 403 627 440;
#X msg 707 574 440;
#X msg 938 872 0.3 300;
#X obj 699 740 osc~ 0.2;
#X obj 699 764 *~ 0.7;
#X msg 896 751 10 50;
#X obj 698 695 osc~ 0.25;
#X obj 698 718 +~;
#X obj 834 781 loadbang;
#X obj 937 849 r 0-15;
#X obj 766 834 vcf~, f 11;
#X connect 0 0 8 0;
#X connect 1 0 5 1;
#X connect 2 0 6 0;
#X connect 2 0 12 0;
#X connect 4 0 66 1;
#X connect 5 0 46 0;
#X connect 6 0 20 0;
#X connect 6 1 61 0;
#X connect 6 2 52 0;
#X connect 7 0 4 0;
#X connect 8 0 66 0;
#X connect 9 0 10 0;
#X connect 9 0 19 0;
#X connect 10 0 9 1;
#X connect 11 0 17 0;
#X connect 13 0 9 0;
#X connect 14 0 0 0;
#X connect 15 0 8 1;
#X connect 16 0 1 0;
#X connect 17 0 21 0;
#X connect 17 1 22 0;
#X connect 17 2 23 0;
#X connect 17 3 24 0;
#X connect 17 4 57 0;
#X connect 17 5 25 0;
#X connect 17 6 26 0;
#X connect 18 0 50 0;
#X connect 19 0 11 0;
#X connect 20 0 7 0;
#X connect 21 0 55 0;
#X connect 22 0 55 0;
#X connect 23 0 55 0;
#X connect 24 0 55 0;
#X connect 25 0 55 0;
#X connect 26 0 55 0;
#X connect 27 0 18 0;
#X connect 28 0 30 0;
#X connect 29 0 28 0;
#X connect 30 0 46 1;
#X connect 31 0 8 0;
#X connect 32 0 33 0;
#X connect 32 0 38 0;
#X connect 33 0 32 1;
#X connect 34 0 45 0;
#X connect 35 0 49 0;
#X connect 36 0 31 0;
#X connect 37 0 39 0;
#X connect 37 1 40 0;
#X connect 37 2 41 0;
#X connect 37 3 42 0;
#X connect 37 4 56 0;
#X connect 37 5 43 0;
#X connect 37 6 44 0;
#X connect 38 0 34 0;
#X connect 39 0 54 0;
#X connect 40 0 54 0;
#X connect 41 0 54 0;
#X connect 42 0 54 0;
#X connect 43 0 54 0;
#X connect 44 0 54 0;
#X connect 45 0 48 0;
#X connect 46 0 3 0;
#X connect 46 0 3 1;
#X connect 47 0 66 2;
#X connect 48 0 37 0;
#X connect 49 0 32 0;
#X connect 50 0 2 0;
#X connect 52 0 16 0;
#X connect 54 0 36 0;
#X connect 55 0 14 0;
#X connect 56 0 54 0;
#X connect 57 0 55 0;
#X connect 58 0 30 0;
#X connect 59 0 60 0;
#X connect 60 0 15 0;
#X connect 61 0 1 0;
#X connect 62 0 63 0;
#X connect 63 0 59 0;
#X connect 64 0 47 0;
#X connect 65 0 58 0;
#X connect 66 0 5 0;
#X restore 424 654 pd wcawe;
#N canvas 0 23 1413 965 eecea 0;
#X obj 570 704 osc~;
#X obj 894 812 line~;
#X obj 917 638 bng 15 250 50 0 empty empty empty 17 7 0 10 -262144
-1 -1;
#X obj 831 978 dac~;
#X floatatom 773 801 5 0 0 0 - - -, f 5;
#X obj 825 864 *~;
#X obj 917 697 t b b b;
#X obj 773 774 + 180;
#X obj 571 830 *~;
#X obj 591 441 float;
#X obj 632 442 + 1;
#X floatatom 596 486 5 0 0 0 - - -, f 5;
#X obj 924 660 s counter;
#X obj 584 414 r counter;
#X obj 570 683 line;
#X obj 699 793 +~ 0.3;
#X msg 966 765 0 200;
#X obj 592 526 select 0 1 2 3 4 5 6 7;
#X obj 915 459 tgl 15 0 empty empty empty 17 7 0 10 -262144 -1 -1 1
1;
#X obj 596 465 % 8;
#X obj 773 744 random 500;
#X msg 566 574 293;
#X msg 597 574 698;
#X msg 630 575 440;
#X msg 670 574 880;
#X msg 756 574 349;
#X msg 790 576 523;
#X obj 904 431 loadbang;
#X msg 877 872 0 300;
#X obj 877 849 r stopit;
#X obj 877 897 line~;
#X obj 272 767 osc~;
#X obj 283 450 float;
#X obj 324 451 + 1;
#X floatatom 288 495 5 0 0 0 - - -, f 5;
#X obj 284 398 r counter;
#X obj 272 746 line;
#X obj 288 579 select 0 1 2 3 4 5 6 7;
#X obj 288 474 % 8;
#X msg 262 627 293;
#X msg 293 627 698;
#X msg 326 628 440;
#X msg 366 627 880;
#X msg 452 627 349;
#X msg 486 629 523;
#X obj 288 516 + 2;
#X obj 826 937 *~;
#X msg 834 801 0.1;
#X floatatom 289 547 5 0 0 0 - - -, f 5;
#X obj 301 428 delay 1000;
#X obj 915 609 metro 7000;
#X text 1011 606 changes every 7;
#X obj 966 736 delay 7000;
#X text 1039 736 changes every 7;
#X msg 266 682 \$1 10;
#X msg 570 660 \$1 10;
#X msg 403 627 440;
#X msg 707 574 440;
#X msg 938 872 0.3 300;
#X obj 699 740 osc~ 0.2;
#X obj 699 764 *~ 0.7;
#X msg 896 751 10 50;
#X obj 698 695 osc~ 0.25;
#X obj 698 718 +~;
#X obj 834 779 loadbang;
#X obj 942 849 r eecea;
#X obj 766 834 vcf~, f 11;
#X connect 0 0 8 0;
#X connect 1 0 5 1;
#X connect 2 0 6 0;
#X connect 2 0 12 0;
#X connect 4 0 66 1;
#X connect 5 0 46 0;
#X connect 6 0 20 0;
#X connect 6 1 61 0;
#X connect 6 2 52 0;
#X connect 7 0 4 0;
#X connect 8 0 66 0;
#X connect 9 0 10 0;
#X connect 9 0 19 0;
#X connect 10 0 9 1;
#X connect 11 0 17 0;
#X connect 13 0 9 0;
#X connect 14 0 0 0;
#X connect 15 0 8 1;
#X connect 16 0 1 0;
#X connect 17 0 21 0;
#X connect 17 1 22 0;
#X connect 17 2 23 0;
#X connect 17 3 24 0;
#X connect 17 4 57 0;
#X connect 17 5 25 0;
#X connect 17 6 26 0;
#X connect 18 0 50 0;
#X connect 19 0 11 0;
#X connect 20 0 7 0;
#X connect 21 0 55 0;
#X connect 22 0 55 0;
#X connect 23 0 55 0;
#X connect 24 0 55 0;
#X connect 25 0 55 0;
#X connect 26 0 55 0;
#X connect 27 0 18 0;
#X connect 28 0 30 0;
#X connect 29 0 28 0;
#X connect 30 0 46 1;
#X connect 31 0 8 0;
#X connect 32 0 33 0;
#X connect 32 0 38 0;
#X connect 33 0 32 1;
#X connect 34 0 45 0;
#X connect 35 0 49 0;
#X connect 36 0 31 0;
#X connect 37 0 39 0;
#X connect 37 1 40 0;
#X connect 37 2 41 0;
#X connect 37 3 42 0;
#X connect 37 4 56 0;
#X connect 37 5 43 0;
#X connect 37 6 44 0;
#X connect 38 0 34 0;
#X connect 39 0 54 0;
#X connect 40 0 54 0;
#X connect 41 0 54 0;
#X connect 42 0 54 0;
#X connect 43 0 54 0;
#X connect 44 0 54 0;
#X connect 45 0 48 0;
#X connect 46 0 3 0;
#X connect 46 0 3 1;
#X connect 47 0 66 2;
#X connect 48 0 37 0;
#X connect 49 0 32 0;
#X connect 50 0 2 0;
#X connect 52 0 16 0;
#X connect 54 0 36 0;
#X connect 55 0 14 0;
#X connect 56 0 54 0;
#X connect 57 0 55 0;
#X connect 58 0 30 0;
#X connect 59 0 60 0;
#X connect 60 0 15 0;
#X connect 61 0 1 0;
#X connect 62 0 63 0;
#X connect 63 0 59 0;
#X connect 64 0 47 0;
#X connect 65 0 58 0;
#X connect 66 0 5 0;
#X restore 423 677 pd eecea;
#N canvas 0 23 1413 965 mmewr 0;
#X obj 570 704 osc~;
#X obj 894 812 line~;
#X obj 917 638 bng 15 250 50 0 empty empty empty 17 7 0 10 -262144
-1 -1;
#X obj 831 978 dac~;
#X floatatom 773 801 5 0 0 0 - - -, f 5;
#X obj 825 864 *~;
#X obj 917 697 t b b b;
#X obj 773 774 + 180;
#X obj 571 830 *~;
#X obj 591 441 float;
#X obj 632 442 + 1;
#X floatatom 596 486 5 0 0 0 - - -, f 5;
#X obj 924 660 s counter;
#X obj 584 414 r counter;
#X obj 570 683 line;
#X obj 699 793 +~ 0.3;
#X msg 966 765 0 200;
#X obj 592 526 select 0 1 2 3 4 5 6 7;
#X obj 915 459 tgl 15 0 empty empty empty 17 7 0 10 -262144 -1 -1 1
1;
#X obj 596 465 % 8;
#X obj 773 744 random 500;
#X msg 566 574 293;
#X msg 597 574 698;
#X msg 630 575 440;
#X msg 670 574 880;
#X msg 756 574 349;
#X msg 790 576 523;
#X obj 904 431 loadbang;
#X msg 877 872 0 300;
#X obj 877 849 r stopit;
#X obj 877 897 line~;
#X obj 272 767 osc~;
#X obj 283 450 float;
#X obj 324 451 + 1;
#X floatatom 288 495 5 0 0 0 - - -, f 5;
#X obj 284 398 r counter;
#X obj 272 746 line;
#X obj 288 579 select 0 1 2 3 4 5 6 7;
#X obj 288 474 % 8;
#X msg 262 627 293;
#X msg 293 627 698;
#X msg 326 628 440;
#X msg 366 627 880;
#X msg 452 627 349;
#X msg 486 629 523;
#X obj 288 516 + 2;
#X obj 826 937 *~;
#X msg 834 801 0.1;
#X floatatom 289 547 5 0 0 0 - - -, f 5;
#X obj 301 428 delay 1000;
#X obj 915 609 metro 7000;
#X text 1011 606 changes every 7;
#X obj 966 736 delay 7000;
#X text 1039 736 changes every 7;
#X msg 266 682 \$1 10;
#X msg 570 660 \$1 10;
#X msg 403 627 440;
#X msg 707 574 440;
#X msg 938 872 0.3 300;
#X obj 699 740 osc~ 0.2;
#X obj 699 764 *~ 0.7;
#X msg 896 751 10 50;
#X obj 698 695 osc~ 0.25;
#X obj 698 718 +~;
#X obj 832 776 loadbang;
#X obj 937 849 r mmewr;
#X obj 766 834 vcf~, f 11;
#X connect 0 0 8 0;
#X connect 1 0 5 1;
#X connect 2 0 6 0;
#X connect 2 0 12 0;
#X connect 4 0 66 1;
#X connect 5 0 46 0;
#X connect 6 0 20 0;
#X connect 6 1 61 0;
#X connect 6 2 52 0;
#X connect 7 0 4 0;
#X connect 8 0 66 0;
#X connect 9 0 10 0;
#X connect 9 0 19 0;
#X connect 10 0 9 1;
#X connect 11 0 17 0;
#X connect 13 0 9 0;
#X connect 14 0 0 0;
#X connect 15 0 8 1;
#X connect 16 0 1 0;
#X connect 17 0 21 0;
#X connect 17 1 22 0;
#X connect 17 2 23 0;
#X connect 17 3 24 0;
#X connect 17 4 57 0;
#X connect 17 5 25 0;
#X connect 17 6 26 0;
#X connect 18 0 50 0;
#X connect 19 0 11 0;
#X connect 20 0 7 0;
#X connect 21 0 55 0;
#X connect 22 0 55 0;
#X connect 23 0 55 0;
#X connect 24 0 55 0;
#X connect 25 0 55 0;
#X connect 26 0 55 0;
#X connect 27 0 18 0;
#X connect 28 0 30 0;
#X connect 29 0 28 0;
#X connect 30 0 46 1;
#X connect 31 0 8 0;
#X connect 32 0 33 0;
#X connect 32 0 38 0;
#X connect 33 0 32 1;
#X connect 34 0 45 0;
#X connect 35 0 49 0;
#X connect 36 0 31 0;
#X connect 37 0 39 0;
#X connect 37 1 40 0;
#X connect 37 2 41 0;
#X connect 37 3 42 0;
#X connect 37 4 56 0;
#X connect 37 5 43 0;
#X connect 37 6 44 0;
#X connect 38 0 34 0;
#X connect 39 0 54 0;
#X connect 40 0 54 0;
#X connect 41 0 54 0;
#X connect 42 0 54 0;
#X connect 43 0 54 0;
#X connect 44 0 54 0;
#X connect 45 0 48 0;
#X connect 46 0 3 0;
#X connect 46 0 3 1;
#X connect 47 0 66 2;
#X connect 48 0 37 0;
#X connect 49 0 32 0;
#X connect 50 0 2 0;
#X connect 52 0 16 0;
#X connect 54 0 36 0;
#X connect 55 0 14 0;
#X connect 56 0 54 0;
#X connect 57 0 55 0;
#X connect 58 0 30 0;
#X connect 59 0 60 0;
#X connect 60 0 15 0;
#X connect 61 0 1 0;
#X connect 62 0 63 0;
#X connect 63 0 59 0;
#X connect 64 0 47 0;
#X connect 65 0 58 0;
#X connect 66 0 5 0;
#X restore 475 699 pd mmewr;
#N canvas 0 23 1413 965 isakr 0;
#X obj 570 704 osc~;
#X obj 894 812 line~;
#X obj 917 638 bng 15 250 50 0 empty empty empty 17 7 0 10 -262144
-1 -1;
#X obj 831 978 dac~;
#X floatatom 773 801 5 0 0 0 - - -, f 5;
#X obj 825 864 *~;
#X obj 917 697 t b b b;
#X obj 773 774 + 180;
#X obj 571 830 *~;
#X obj 591 441 float;
#X obj 632 442 + 1;
#X floatatom 596 486 5 0 0 0 - - -, f 5;
#X obj 924 660 s counter;
#X obj 584 414 r counter;
#X obj 570 683 line;
#X obj 699 793 +~ 0.3;
#X msg 966 765 0 200;
#X obj 592 526 select 0 1 2 3 4 5 6 7;
#X obj 915 459 tgl 15 0 empty empty empty 17 7 0 10 -262144 -1 -1 1
1;
#X obj 596 465 % 8;
#X obj 773 744 random 500;
#X msg 566 574 293;
#X msg 597 574 698;
#X msg 630 575 440;
#X msg 670 574 880;
#X msg 756 574 349;
#X msg 790 576 523;
#X obj 904 431 loadbang;
#X msg 877 872 0 300;
#X obj 877 849 r stopit;
#X obj 877 897 line~;
#X obj 272 767 osc~;
#X obj 283 450 float;
#X obj 324 451 + 1;
#X floatatom 288 495 5 0 0 0 - - -, f 5;
#X obj 284 398 r counter;
#X obj 272 746 line;
#X obj 288 579 select 0 1 2 3 4 5 6 7;
#X obj 288 474 % 8;
#X msg 262 627 293;
#X msg 293 627 698;
#X msg 326 628 440;
#X msg 366 627 880;
#X msg 452 627 349;
#X msg 486 629 523;
#X obj 288 516 + 2;
#X obj 826 937 *~;
#X msg 834 801 0.1;
#X floatatom 289 547 5 0 0 0 - - -, f 5;
#X obj 301 428 delay 1000;
#X obj 915 609 metro 7000;
#X text 1011 606 changes every 7;
#X obj 966 736 delay 7000;
#X text 1039 736 changes every 7;
#X msg 266 682 \$1 10;
#X msg 570 660 \$1 10;
#X msg 403 627 440;
#X msg 707 574 440;
#X msg 938 872 0.3 300;
#X obj 699 740 osc~ 0.2;
#X obj 699 764 *~ 0.7;
#X msg 896 751 10 50;
#X obj 698 695 osc~ 0.25;
#X obj 698 718 +~;
#X obj 832 781 loadbang;
#X obj 937 849 r isakr;
#X obj 766 834 vcf~, f 11;
#X connect 0 0 8 0;
#X connect 1 0 5 1;
#X connect 2 0 6 0;
#X connect 2 0 12 0;
#X connect 4 0 66 1;
#X connect 5 0 46 0;
#X connect 6 0 20 0;
#X connect 6 1 61 0;
#X connect 6 2 52 0;
#X connect 7 0 4 0;
#X connect 8 0 66 0;
#X connect 9 0 10 0;
#X connect 9 0 19 0;
#X connect 10 0 9 1;
#X connect 11 0 17 0;
#X connect 13 0 9 0;
#X connect 14 0 0 0;
#X connect 15 0 8 1;
#X connect 16 0 1 0;
#X connect 17 0 21 0;
#X connect 17 1 22 0;
#X connect 17 2 23 0;
#X connect 17 3 24 0;
#X connect 17 4 57 0;
#X connect 17 5 25 0;
#X connect 17 6 26 0;
#X connect 18 0 50 0;
#X connect 19 0 11 0;
#X connect 20 0 7 0;
#X connect 21 0 55 0;
#X connect 22 0 55 0;
#X connect 23 0 55 0;
#X connect 24 0 55 0;
#X connect 25 0 55 0;
#X connect 26 0 55 0;
#X connect 27 0 18 0;
#X connect 28 0 30 0;
#X connect 29 0 28 0;
#X connect 30 0 46 1;
#X connect 31 0 8 0;
#X connect 32 0 33 0;
#X connect 32 0 38 0;
#X connect 33 0 32 1;
#X connect 34 0 45 0;
#X connect 35 0 49 0;
#X connect 36 0 31 0;
#X connect 37 0 39 0;
#X connect 37 1 40 0;
#X connect 37 2 41 0;
#X connect 37 3 42 0;
#X connect 37 4 56 0;
#X connect 37 5 43 0;
#X connect 37 6 44 0;
#X connect 38 0 34 0;
#X connect 39 0 54 0;
#X connect 40 0 54 0;
#X connect 41 0 54 0;
#X connect 42 0 54 0;
#X connect 43 0 54 0;
#X connect 44 0 54 0;
#X connect 45 0 48 0;
#X connect 46 0 3 0;
#X connect 46 0 3 1;
#X connect 47 0 66 2;
#X connect 48 0 37 0;
#X connect 49 0 32 0;
#X connect 50 0 2 0;
#X connect 52 0 16 0;
#X connect 54 0 36 0;
#X connect 55 0 14 0;
#X connect 56 0 54 0;
#X connect 57 0 55 0;
#X connect 58 0 30 0;
#X connect 59 0 60 0;
#X connect 60 0 15 0;
#X connect 61 0 1 0;
#X connect 62 0 63 0;
#X connect 63 0 59 0;
#X connect 64 0 47 0;
#X connect 65 0 58 0;
#X connect 66 0 5 0;
#X restore 454 723 pd isakr;
#N canvas 0 23 1413 965 apjr 0;
#X obj 570 704 osc~;
#X obj 894 812 line~;
#X obj 917 638 bng 15 250 50 0 empty empty empty 17 7 0 10 -262144
-1 -1;
#X obj 831 978 dac~;
#X floatatom 773 801 5 0 0 0 - - -, f 5;
#X obj 825 864 *~;
#X obj 917 697 t b b b;
#X obj 773 774 + 180;
#X obj 571 830 *~;
#X obj 591 441 float;
#X obj 632 442 + 1;
#X floatatom 596 486 5 0 0 0 - - -, f 5;
#X obj 924 660 s counter;
#X obj 584 414 r counter;
#X obj 570 683 line;
#X obj 699 793 +~ 0.3;
#X msg 966 765 0 200;
#X obj 592 526 select 0 1 2 3 4 5 6 7;
#X obj 915 459 tgl 15 0 empty empty empty 17 7 0 10 -262144 -1 -1 1
1;
#X obj 596 465 % 8;
#X obj 773 744 random 500;
#X msg 566 574 293;
#X msg 597 574 698;
#X msg 630 575 440;
#X msg 670 574 880;
#X msg 756 574 349;
#X msg 790 576 523;
#X obj 904 431 loadbang;
#X msg 877 872 0 300;
#X obj 877 849 r stopit;
#X obj 877 897 line~;
#X obj 272 767 osc~;
#X obj 283 450 float;
#X obj 324 451 + 1;
#X floatatom 288 495 5 0 0 0 - - -, f 5;
#X obj 284 398 r counter;
#X obj 272 746 line;
#X obj 288 579 select 0 1 2 3 4 5 6 7;
#X obj 288 474 % 8;
#X msg 262 627 293;
#X msg 293 627 698;
#X msg 326 628 440;
#X msg 366 627 880;
#X msg 452 627 349;
#X msg 486 629 523;
#X obj 288 516 + 2;
#X obj 826 937 *~;
#X msg 834 801 0.1;
#X floatatom 289 547 5 0 0 0 - - -, f 5;
#X obj 301 428 delay 1000;
#X obj 915 609 metro 7000;
#X text 1011 606 changes every 7;
#X obj 966 736 delay 7000;
#X text 1039 736 changes every 7;
#X msg 266 682 \$1 10;
#X msg 570 660 \$1 10;
#X msg 403 627 440;
#X msg 707 574 440;
#X msg 938 872 0.3 300;
#X obj 699 740 osc~ 0.2;
#X obj 699 764 *~ 0.7;
#X msg 896 751 10 50;
#X obj 698 695 osc~ 0.25;
#X obj 698 718 +~;
#X obj 834 777 loadbang;
#X obj 937 849 r apjr;
#X obj 766 834 vcf~, f 11;
#X connect 0 0 8 0;
#X connect 1 0 5 1;
#X connect 2 0 6 0;
#X connect 2 0 12 0;
#X connect 4 0 66 1;
#X connect 5 0 46 0;
#X connect 6 0 20 0;
#X connect 6 1 61 0;
#X connect 6 2 52 0;
#X connect 7 0 4 0;
#X connect 8 0 66 0;
#X connect 9 0 10 0;
#X connect 9 0 19 0;
#X connect 10 0 9 1;
#X connect 11 0 17 0;
#X connect 13 0 9 0;
#X connect 14 0 0 0;
#X connect 15 0 8 1;
#X connect 16 0 1 0;
#X connect 17 0 21 0;
#X connect 17 1 22 0;
#X connect 17 2 23 0;
#X connect 17 3 24 0;
#X connect 17 4 57 0;
#X connect 17 5 25 0;
#X connect 17 6 26 0;
#X connect 18 0 50 0;
#X connect 19 0 11 0;
#X connect 20 0 7 0;
#X connect 21 0 55 0;
#X connect 22 0 55 0;
#X connect 23 0 55 0;
#X connect 24 0 55 0;
#X connect 25 0 55 0;
#X connect 26 0 55 0;
#X connect 27 0 18 0;
#X connect 28 0 30 0;
#X connect 29 0 28 0;
#X connect 30 0 46 1;
#X connect 31 0 8 0;
#X connect 32 0 33 0;
#X connect 32 0 38 0;
#X connect 33 0 32 1;
#X connect 34 0 45 0;
#X connect 35 0 49 0;
#X connect 36 0 31 0;
#X connect 37 0 39 0;
#X connect 37 1 40 0;
#X connect 37 2 41 0;
#X connect 37 3 42 0;
#X connect 37 4 56 0;
#X connect 37 5 43 0;
#X connect 37 6 44 0;
#X connect 38 0 34 0;
#X connect 39 0 54 0;
#X connect 40 0 54 0;
#X connect 41 0 54 0;
#X connect 42 0 54 0;
#X connect 43 0 54 0;
#X connect 44 0 54 0;
#X connect 45 0 48 0;
#X connect 46 0 3 0;
#X connect 46 0 3 1;
#X connect 47 0 66 2;
#X connect 48 0 37 0;
#X connect 49 0 32 0;
#X connect 50 0 2 0;
#X connect 52 0 16 0;
#X connect 54 0 36 0;
#X connect 55 0 14 0;
#X connect 56 0 54 0;
#X connect 57 0 55 0;
#X connect 58 0 30 0;
#X connect 59 0 60 0;
#X connect 60 0 15 0;
#X connect 61 0 1 0;
#X connect 62 0 63 0;
#X connect 63 0 59 0;
#X connect 64 0 47 0;
#X connect 65 0 58 0;
#X connect 66 0 5 0;
#X restore 520 749 pd apjr;
#X obj 366 773 s nzer;
#N canvas 0 23 1413 965 nzer 0;
#X obj 570 704 osc~;
#X obj 894 812 line~;
#X obj 917 638 bng 15 250 50 0 empty empty empty 17 7 0 10 -262144
-1 -1;
#X obj 831 978 dac~;
#X floatatom 773 801 5 0 0 0 - - -, f 5;
#X obj 825 864 *~;
#X obj 917 697 t b b b;
#X obj 773 774 + 180;
#X obj 571 830 *~;
#X obj 591 441 float;
#X obj 632 442 + 1;
#X floatatom 596 486 5 0 0 0 - - -, f 5;
#X obj 924 660 s counter;
#X obj 584 414 r counter;
#X obj 570 683 line;
#X obj 699 793 +~ 0.3;
#X msg 966 765 0 200;
#X obj 592 526 select 0 1 2 3 4 5 6 7;
#X obj 915 459 tgl 15 0 empty empty empty 17 7 0 10 -262144 -1 -1 1
1;
#X obj 596 465 % 8;
#X obj 773 744 random 500;
#X msg 566 574 293;
#X msg 597 574 698;
#X msg 630 575 440;
#X msg 670 574 880;
#X msg 756 574 349;
#X msg 790 576 523;
#X obj 904 431 loadbang;
#X msg 877 872 0 300;
#X obj 877 849 r stopit;
#X obj 877 897 line~;
#X obj 272 767 osc~;
#X obj 283 450 float;
#X obj 324 451 + 1;
#X floatatom 288 495 5 0 0 0 - - -, f 5;
#X obj 284 398 r counter;
#X obj 272 746 line;
#X obj 288 579 select 0 1 2 3 4 5 6 7;
#X obj 288 474 % 8;
#X msg 262 627 293;
#X msg 293 627 698;
#X msg 326 628 440;
#X msg 366 627 880;
#X msg 452 627 349;
#X msg 486 629 523;
#X obj 288 516 + 2;
#X obj 826 937 *~;
#X msg 834 801 0.1;
#X floatatom 289 547 5 0 0 0 - - -, f 5;
#X obj 301 428 delay 1000;
#X obj 915 609 metro 7000;
#X text 1011 606 changes every 7;
#X obj 966 736 delay 7000;
#X text 1039 736 changes every 7;
#X msg 266 682 \$1 10;
#X msg 570 660 \$1 10;
#X msg 403 627 440;
#X msg 707 574 440;
#X msg 938 872 0.3 300;
#X obj 699 740 osc~ 0.2;
#X obj 699 764 *~ 0.7;
#X msg 896 751 10 50;
#X obj 698 695 osc~ 0.25;
#X obj 698 718 +~;
#X obj 834 778 loadbang;
#X obj 946 849 r nzer;
#X obj 766 834 vcf~, f 11;
#X connect 0 0 8 0;
#X connect 1 0 5 1;
#X connect 2 0 6 0;
#X connect 2 0 12 0;
#X connect 4 0 66 1;
#X connect 5 0 46 0;
#X connect 6 0 20 0;
#X connect 6 1 61 0;
#X connect 6 2 52 0;
#X connect 7 0 4 0;
#X connect 8 0 66 0;
#X connect 9 0 10 0;
#X connect 9 0 19 0;
#X connect 10 0 9 1;
#X connect 11 0 17 0;
#X connect 13 0 9 0;
#X connect 14 0 0 0;
#X connect 15 0 8 1;
#X connect 16 0 1 0;
#X connect 17 0 21 0;
#X connect 17 1 22 0;
#X connect 17 2 23 0;
#X connect 17 3 24 0;
#X connect 17 4 57 0;
#X connect 17 5 25 0;
#X connect 17 6 26 0;
#X connect 18 0 50 0;
#X connect 19 0 11 0;
#X connect 20 0 7 0;
#X connect 21 0 55 0;
#X connect 22 0 55 0;
#X connect 23 0 55 0;
#X connect 24 0 55 0;
#X connect 25 0 55 0;
#X connect 26 0 55 0;
#X connect 27 0 18 0;
#X connect 28 0 30 0;
#X connect 29 0 28 0;
#X connect 30 0 46 1;
#X connect 31 0 8 0;
#X connect 32 0 33 0;
#X connect 32 0 38 0;
#X connect 33 0 32 1;
#X connect 34 0 45 0;
#X connect 35 0 49 0;
#X connect 36 0 31 0;
#X connect 37 0 39 0;
#X connect 37 1 40 0;
#X connect 37 2 41 0;
#X connect 37 3 42 0;
#X connect 37 4 56 0;
#X connect 37 5 43 0;
#X connect 37 6 44 0;
#X connect 38 0 34 0;
#X connect 39 0 54 0;
#X connect 40 0 54 0;
#X connect 41 0 54 0;
#X connect 42 0 54 0;
#X connect 43 0 54 0;
#X connect 44 0 54 0;
#X connect 45 0 48 0;
#X connect 46 0 3 0;
#X connect 46 0 3 1;
#X connect 47 0 66 2;
#X connect 48 0 37 0;
#X connect 49 0 32 0;
#X connect 50 0 2 0;
#X connect 52 0 16 0;
#X connect 54 0 36 0;
#X connect 55 0 14 0;
#X connect 56 0 54 0;
#X connect 57 0 55 0;
#X connect 58 0 30 0;
#X connect 59 0 60 0;
#X connect 60 0 15 0;
#X connect 61 0 1 0;
#X connect 62 0 63 0;
#X connect 63 0 59 0;
#X connect 64 0 47 0;
#X connect 65 0 58 0;
#X connect 66 0 5 0;
#X restore 433 773 pd nzer;
#X text -6 2 silence;
#X connect 0 0 8 0;
#X connect 1 0 47 0;
#X connect 5 0 6 0;
#X connect 6 0 0 0;
#X connect 6 1 1 0;
#X connect 38 0 37 0;
#X connect 41 0 40 0;
#X connect 43 0 44 0;
#X connect 46 0 100 0;
#X connect 48 0 49 0;
#X connect 53 0 54 0;
#X connect 56 0 90 0;
#X connect 58 0 89 0;
#X connect 59 0 60 0;
#X connect 63 0 64 0;
#X connect 66 0 1 0;
#X connect 67 0 0 0;
#X connect 68 0 5 0;
#X connect 71 0 91 0;
#X connect 72 0 103 0;
#X connect 73 0 93 0;
#X connect 77 0 94 0;
#X connect 79 0 95 0;
#X connect 81 0 96 0;
#X connect 83 0 97 0;
#X connect 85 0 109 0;
