#N canvas 35 42 1024 889 10;
#X obj 67 172 loadbang;
#X msg 68 278 read -resize sun.wav sun;
#X obj 68 398 soundfiler;
#N canvas 0 22 450 278 (subpatch) 0;
#X array sun 61940 float 2;
#X coords 0 1 61940 -1 200 140 1;
#X restore 305 264 graph;
#X obj 269 545 s a;
#X obj 323 545 s d;
#X obj 351 545 s f;
#X obj 378 545 s g;
#X obj 405 545 s h;
#X obj 433 545 s j;
#X obj 460 545 s k;
#X obj 296 545 s s;
#X obj 269 525 bng 15 250 50 0 empty empty empty 17 7 0 10 -262144
-1 -1;
#X obj 296 525 bng 15 250 50 0 empty empty empty 17 7 0 10 -262144
-1 -1;
#X obj 351 525 bng 15 250 50 0 empty empty empty 17 7 0 10 -262144
-1 -1;
#X obj 378 525 bng 15 250 50 0 empty empty empty 17 7 0 10 -262144
-1 -1;
#X obj 405 525 bng 15 250 50 0 empty empty empty 17 7 0 10 -262144
-1 -1;
#X obj 433 525 bng 15 250 50 0 empty empty empty 17 7 0 10 -262144
-1 -1;
#X obj 460 525 bng 15 250 50 0 empty empty empty 17 7 0 10 -262144
-1 -1;
#X obj 323 525 bng 15 250 50 0 empty empty empty 17 7 0 10 -262144
-1 -1;
#X floatatom 269 468 5 0 0 0 - - -, f 5;
#X obj 269 446 key;
#X text 521 500 (A-K);
#N canvas 407 165 1273 693 hammers 0;
#X obj 177 467 dac~;
#X obj 204 374 line~;
#X obj 204 395 tabread4~ sun;
#X obj 125 287 t b b;
#X obj 135 373 line~;
#X floatatom 219 194 5 0 0 0 - - -, f 5;
#X obj 219 176 expr size ("sun");
#X floatatom 286 286 7 0 0 0 - - -, f 7;
#X obj 288 215 / 44.1;
#X obj 189 427 *~;
#X obj 219 126 del 40;
#X obj 287 252 div, f 4;
#X obj 219 314 pack f f;
#X msg 219 338 1 \, \$1 \$2;
#X msg 149 346 1 40;
#X obj 149 323 del 40;
#X msg 108 346 0 40;
#X obj 125 262 r k;
#X obj 219 102 r k;
#X obj 497 464 dac~;
#X obj 524 371 line~;
#X obj 524 392 tabread4~ sun;
#X obj 445 284 t b b;
#X obj 455 370 line~;
#X floatatom 539 195 5 0 0 0 - - -, f 5;
#X obj 539 173 expr size ("sun");
#X obj 509 424 *~;
#X obj 539 123 del 40;
#X obj 539 311 pack f f;
#X msg 539 335 1 \, \$1 \$2;
#X msg 469 343 1 40;
#X obj 469 320 del 40;
#X msg 428 343 0 40;
#X obj 445 259 r j;
#X obj 539 99 r j;
#X floatatom 596 284 7 0 0 0 - - -, f 7;
#X obj 597 220 / 44.1;
#X obj 597 262 div, f 4;
#X obj 813 463 dac~;
#X obj 840 370 line~;
#X obj 840 391 tabread4~ sun;
#X obj 761 283 t b b;
#X obj 771 369 line~;
#X floatatom 855 194 5 0 0 0 - - -, f 5;
#X obj 855 172 expr size ("sun");
#X obj 825 423 *~;
#X obj 855 122 del 40;
#X obj 855 310 pack f f;
#X msg 855 334 1 \, \$1 \$2;
#X msg 785 342 1 40;
#X obj 785 319 del 40;
#X msg 744 342 0 40;
#X floatatom 913 283 7 0 0 0 - - -, f 7;
#X obj 913 219 / 44.1;
#X obj 913 262 div, f 4;
#X obj 855 98 r h;
#X obj 761 258 r h;
#X obj 1076 464 dac~;
#X obj 1103 371 line~;
#X obj 1103 392 tabread4~ sun;
#X obj 1024 284 t b b;
#X obj 1034 370 line~;
#X floatatom 1118 195 5 0 0 0 - - -, f 5;
#X obj 1118 173 expr size ("sun");
#X obj 1088 424 *~;
#X obj 1118 123 del 40;
#X obj 1118 311 pack f f;
#X msg 1118 335 1 \, \$1 \$2;
#X msg 1048 343 1 40;
#X obj 1048 320 del 40;
#X msg 1007 343 0 40;
#X floatatom 1176 284 7 0 0 0 - - -, f 7;
#X obj 1176 220 / 44.1;
#X obj 1176 263 div, f 4;
#X obj 1118 99 r g;
#X obj 1024 259 r g;
#X obj 1346 464 dac~;
#X obj 1373 371 line~;
#X obj 1373 392 tabread4~ sun;
#X obj 1294 284 t b b;
#X obj 1304 370 line~;
#X floatatom 1388 195 5 0 0 0 - - -, f 5;
#X obj 1388 173 expr size ("sun");
#X obj 1358 424 *~;
#X obj 1388 123 del 40;
#X obj 1388 311 pack f f;
#X msg 1388 335 1 \, \$1 \$2;
#X msg 1318 343 1 40;
#X obj 1318 320 del 40;
#X msg 1277 343 0 40;
#X floatatom 1446 284 7 0 0 0 - - -, f 7;
#X obj 1446 220 / 44.1;
#X obj 1446 263 div, f 4;
#X obj 1294 259 r f;
#X obj 1388 99 r f;
#X obj 1586 464 dac~;
#X obj 1613 371 line~;
#X obj 1613 392 tabread4~ sun;
#X obj 1534 284 t b b;
#X obj 1544 370 line~;
#X floatatom 1628 195 5 0 0 0 - - -, f 5;
#X obj 1628 173 expr size ("sun");
#X obj 1598 424 *~;
#X obj 1628 123 del 40;
#X obj 1628 311 pack f f;
#X msg 1628 335 1 \, \$1 \$2;
#X msg 1558 343 1 40;
#X obj 1558 320 del 40;
#X msg 1517 343 0 40;
#X floatatom 1686 284 7 0 0 0 - - -, f 7;
#X obj 1686 220 / 44.1;
#X obj 1686 263 div, f 4;
#X obj 1628 99 r d;
#X obj 1534 259 r d;
#X obj 1826 464 dac~;
#X obj 1853 371 line~;
#X obj 1853 392 tabread4~ sun;
#X obj 1774 284 t b b;
#X obj 1784 370 line~;
#X floatatom 1868 195 5 0 0 0 - - -, f 5;
#X obj 1868 173 expr size ("sun");
#X obj 1838 424 *~;
#X obj 1868 123 del 40;
#X obj 1868 311 pack f f;
#X msg 1868 335 1 \, \$1 \$2;
#X msg 1798 343 1 40;
#X obj 1798 320 del 40;
#X msg 1757 343 0 40;
#X floatatom 1926 284 7 0 0 0 - - -, f 7;
#X obj 1926 220 / 44.1;
#X obj 1926 263 div, f 4;
#X obj 1868 99 r s;
#X obj 1774 259 r s;
#X obj 2056 464 dac~;
#X obj 2083 371 line~;
#X obj 2083 392 tabread4~ sun;
#X obj 2004 284 t b b;
#X obj 2014 370 line~;
#X floatatom 2098 195 5 0 0 0 - - -, f 5;
#X obj 2098 173 expr size ("sun");
#X obj 2068 424 *~;
#X obj 2098 123 del 40;
#X obj 2098 311 pack f f;
#X msg 2098 335 1 \, \$1 \$2;
#X msg 2028 343 1 40;
#X obj 2028 320 del 40;
#X msg 1987 343 0 40;
#X floatatom 2156 284 7 0 0 0 - - -, f 7;
#X obj 2156 220 / 44.1;
#X obj 2156 263 div, f 4;
#X obj 2004 259 r a;
#X obj 2098 99 r a;
#X obj 2162 241 * 4;
#X obj 1932 241 * 3;
#X text 2098 57 low c;
#X text 1864 60 low F;
#X obj 1692 241 * 2.38;
#X text 1625 63 low A;
#X obj 1452 241 * 2;
#X text 1379 67 C;
#X obj 1181 241 * 1.785;
#X text 1126 69 D;
#X obj 918 240 * 1.585;
#X text 850 73 A;
#X obj 603 239 * 1.5;
#X text 538 76 F;
#X obj 296 234 * 1.335;
#X text 217 77 G;
#X text -169 39 reversed mapping \, ordered by increasing multiplier.
;
#X text 36 232 <-- multiplier;
#X text -118 74 pitch:;
#X text -148 99 keystroke:;
#X obj -113 464 dac~;
#X obj -86 371 line~;
#X obj -86 392 tabread4~ sun;
#X obj -165 284 t b b;
#X obj -155 370 line~;
#X floatatom -71 191 5 0 0 0 - - -, f 5;
#X obj -71 173 expr size ("sun");
#X floatatom -4 283 7 0 0 0 - - -, f 7;
#X obj -2 212 / 44.1;
#X obj -101 424 *~;
#X obj -71 123 del 40;
#X obj -3 249 div, f 4;
#X obj -71 311 pack f f;
#X msg -71 335 1 \, \$1 \$2;
#X msg -141 343 1 40;
#X obj -141 320 del 40;
#X msg -182 343 0 40;
#X text -73 74 G;
#X obj -71 99 r l;
#X obj -165 259 r l;
#X obj 6 231 * 1;
#X text -236 258 keystroke:;
#X connect 1 0 2 0;
#X connect 2 0 9 1;
#X connect 3 0 15 0;
#X connect 3 1 16 0;
#X connect 4 0 9 0;
#X connect 5 0 8 0;
#X connect 5 0 12 0;
#X connect 6 0 5 0;
#X connect 7 0 12 1;
#X connect 8 0 166 0;
#X connect 9 0 0 0;
#X connect 9 0 0 1;
#X connect 10 0 6 0;
#X connect 11 0 7 0;
#X connect 12 0 13 0;
#X connect 13 0 1 0;
#X connect 14 0 4 0;
#X connect 15 0 14 0;
#X connect 16 0 4 0;
#X connect 17 0 3 0;
#X connect 18 0 10 0;
#X connect 20 0 21 0;
#X connect 21 0 26 1;
#X connect 22 0 31 0;
#X connect 22 1 32 0;
#X connect 23 0 26 0;
#X connect 24 0 28 0;
#X connect 24 0 36 0;
#X connect 25 0 24 0;
#X connect 26 0 19 0;
#X connect 26 0 19 1;
#X connect 27 0 25 0;
#X connect 28 0 29 0;
#X connect 29 0 20 0;
#X connect 30 0 23 0;
#X connect 31 0 30 0;
#X connect 32 0 23 0;
#X connect 33 0 22 0;
#X connect 34 0 27 0;
#X connect 35 0 28 1;
#X connect 36 0 164 0;
#X connect 37 0 35 0;
#X connect 39 0 40 0;
#X connect 40 0 45 1;
#X connect 41 0 50 0;
#X connect 41 1 51 0;
#X connect 42 0 45 0;
#X connect 43 0 47 0;
#X connect 43 0 53 0;
#X connect 44 0 43 0;
#X connect 45 0 38 0;
#X connect 45 0 38 1;
#X connect 46 0 44 0;
#X connect 47 0 48 0;
#X connect 48 0 39 0;
#X connect 49 0 42 0;
#X connect 50 0 49 0;
#X connect 51 0 42 0;
#X connect 52 0 47 1;
#X connect 53 0 162 0;
#X connect 54 0 52 0;
#X connect 55 0 46 0;
#X connect 56 0 41 0;
#X connect 58 0 59 0;
#X connect 59 0 64 1;
#X connect 60 0 69 0;
#X connect 60 1 70 0;
#X connect 61 0 64 0;
#X connect 62 0 66 0;
#X connect 62 0 72 0;
#X connect 63 0 62 0;
#X connect 64 0 57 0;
#X connect 64 0 57 1;
#X connect 65 0 63 0;
#X connect 66 0 67 0;
#X connect 67 0 58 0;
#X connect 68 0 61 0;
#X connect 69 0 68 0;
#X connect 70 0 61 0;
#X connect 71 0 66 1;
#X connect 72 0 160 0;
#X connect 73 0 71 0;
#X connect 74 0 65 0;
#X connect 75 0 60 0;
#X connect 77 0 78 0;
#X connect 78 0 83 1;
#X connect 79 0 88 0;
#X connect 79 1 89 0;
#X connect 80 0 83 0;
#X connect 81 0 85 0;
#X connect 81 0 91 0;
#X connect 82 0 81 0;
#X connect 83 0 76 0;
#X connect 83 0 76 1;
#X connect 84 0 82 0;
#X connect 85 0 86 0;
#X connect 86 0 77 0;
#X connect 87 0 80 0;
#X connect 88 0 87 0;
#X connect 89 0 80 0;
#X connect 90 0 85 1;
#X connect 91 0 158 0;
#X connect 92 0 90 0;
#X connect 93 0 79 0;
#X connect 94 0 84 0;
#X connect 96 0 97 0;
#X connect 97 0 102 1;
#X connect 98 0 107 0;
#X connect 98 1 108 0;
#X connect 99 0 102 0;
#X connect 100 0 104 0;
#X connect 100 0 110 0;
#X connect 101 0 100 0;
#X connect 102 0 95 0;
#X connect 102 0 95 1;
#X connect 103 0 101 0;
#X connect 104 0 105 0;
#X connect 105 0 96 0;
#X connect 106 0 99 0;
#X connect 107 0 106 0;
#X connect 108 0 99 0;
#X connect 109 0 104 1;
#X connect 110 0 156 0;
#X connect 111 0 109 0;
#X connect 112 0 103 0;
#X connect 113 0 98 0;
#X connect 115 0 116 0;
#X connect 116 0 121 1;
#X connect 117 0 126 0;
#X connect 117 1 127 0;
#X connect 118 0 121 0;
#X connect 119 0 123 0;
#X connect 119 0 129 0;
#X connect 120 0 119 0;
#X connect 121 0 114 0;
#X connect 121 0 114 1;
#X connect 122 0 120 0;
#X connect 123 0 124 0;
#X connect 124 0 115 0;
#X connect 125 0 118 0;
#X connect 126 0 125 0;
#X connect 127 0 118 0;
#X connect 128 0 123 1;
#X connect 129 0 153 0;
#X connect 130 0 128 0;
#X connect 131 0 122 0;
#X connect 132 0 117 0;
#X connect 134 0 135 0;
#X connect 135 0 140 1;
#X connect 136 0 145 0;
#X connect 136 1 146 0;
#X connect 137 0 140 0;
#X connect 138 0 142 0;
#X connect 138 0 148 0;
#X connect 139 0 138 0;
#X connect 140 0 133 0;
#X connect 140 0 133 1;
#X connect 141 0 139 0;
#X connect 142 0 143 0;
#X connect 143 0 134 0;
#X connect 144 0 137 0;
#X connect 145 0 144 0;
#X connect 146 0 137 0;
#X connect 147 0 142 1;
#X connect 148 0 152 0;
#X connect 149 0 147 0;
#X connect 150 0 136 0;
#X connect 151 0 141 0;
#X connect 152 0 149 0;
#X connect 153 0 130 0;
#X connect 156 0 111 0;
#X connect 158 0 92 0;
#X connect 160 0 73 0;
#X connect 162 0 54 0;
#X connect 164 0 37 0;
#X connect 166 0 11 0;
#X connect 173 0 174 0;
#X connect 174 0 181 1;
#X connect 175 0 187 0;
#X connect 175 1 188 0;
#X connect 176 0 181 0;
#X connect 177 0 180 0;
#X connect 177 0 184 0;
#X connect 178 0 177 0;
#X connect 179 0 184 1;
#X connect 180 0 192 0;
#X connect 181 0 172 0;
#X connect 181 0 172 1;
#X connect 182 0 178 0;
#X connect 183 0 179 0;
#X connect 184 0 185 0;
#X connect 185 0 173 0;
#X connect 186 0 176 0;
#X connect 187 0 186 0;
#X connect 188 0 176 0;
#X connect 190 0 182 0;
#X connect 191 0 175 0;
#X connect 192 0 183 0;
#X restore 68 530 pd hammers;
#X obj 488 525 bng 15 250 50 0 empty empty empty 17 7 0 10 -262144
-1 -1;
#X obj 488 545 s l;
#X obj 80 509 loadbang;
#X obj 269 500 select 97 115 100 102 103 104 106 107 108;
#X text 133 530 "guts";
#X msg 108 347 read -resize kalimba.wav sun;
#X msg 110 371 read -resize cello.wav sun;
#X text -28 280 default voice:;
#X text 106 330 click for options:;
#X obj 321 461 s key;
#X text 138 509 primes the voices;
#X connect 0 0 1 0;
#X connect 1 0 2 0;
#X connect 12 0 4 0;
#X connect 13 0 11 0;
#X connect 14 0 6 0;
#X connect 15 0 7 0;
#X connect 16 0 8 0;
#X connect 17 0 9 0;
#X connect 18 0 10 0;
#X connect 19 0 5 0;
#X connect 20 0 27 0;
#X connect 20 0 33 0;
#X connect 21 0 20 0;
#X connect 24 0 25 0;
#X connect 26 0 12 0;
#X connect 26 0 13 0;
#X connect 26 0 19 0;
#X connect 26 0 14 0;
#X connect 26 0 15 0;
#X connect 26 0 16 0;
#X connect 26 0 17 0;
#X connect 26 0 18 0;
#X connect 26 0 24 0;
#X connect 27 0 12 0;
#X connect 27 1 13 0;
#X connect 27 2 19 0;
#X connect 27 3 14 0;
#X connect 27 4 15 0;
#X connect 27 5 16 0;
#X connect 27 6 17 0;
#X connect 27 7 18 0;
#X connect 27 8 24 0;
#X connect 29 0 2 0;
#X connect 30 0 2 0;
